<?xml version="1.0" encoding="utf-8"?>
<!-- Generator: Adobe Illustrator 15.1.0, SVG Export Plug-In  -->
<!DOCTYPE svg PUBLIC "-//W3C//DTD SVG 1.1//EN" "http://www.w3.org/Graphics/SVG/1.1/DTD/svg11.dtd" [
	<!ENTITY ns_flows "http://ns.adobe.com/Flows/1.0/">
]>
<svg version="1.1"
	 xmlns="http://www.w3.org/2000/svg" xmlns:xlink="http://www.w3.org/1999/xlink" xmlns:a="http://ns.adobe.com/AdobeSVGViewerExtensions/3.0/"
	 x="0px" y="0px" width="600px" height="200px" viewBox="-187.95 -7.47 600 200" enable-background="new -187.95 -7.47 600 200"
	 xml:space="preserve">
<defs>
</defs>
<path fill="none" stroke="#020202" stroke-miterlimit="10" d="M0.92,119.67L2,122.1l2.56-0.48l6.27,7.38l-1.25,1.23l0.92,1.7
	l-1.59,1.38l0.59,0.98c0,0,0.81-0.38,0.86-0.36s1.81,0.33,1.81,0.33l0.45,3.05l2.61-0.92l1.48-0.56l0.17,2.08l1.63,0.33
	c0,0,0.14,2.47,0.17,2.52s1.67,0.48,1.67,0.48l-0.05,2.64l1.09,0.16l0.02,1.45l-0.66,1.42l0.63,0.83l1.92,0.08l0.91,0.03l-0.33,2.39
	v0.78c0,0,10.44-0.05,10.53-0.05s1.34-1.73,1.45-1.7s1.72,0.98,1.72,0.98l1.08-0.64l2.03,2l1.42-0.84c0,0,0.97-2.69,1.06-2.39
	s2.56,1.05,2.56,1.05s1.14-1.19,1.23-1.14s1.95,1.2,1.95,1.2l1.69-0.88l3.83-0.02l0.11-1.61l-1.38-1.47l2.97-0.75l8.13,1.75
	c0,0,0.19,1.77,0.2,1.81s2.34,0.45,2.34,0.45l1.33,1.69c0,0-2.03,1.66-1.98,1.69s1.73,0.95,1.84,1.03s1.84-1.34,1.84-1.34
	s1.05,2.61,1.13,2.67s2.84,3.25,2.84,3.25l0.08,1.52l-3.58,1.86l1.94,1.88l0.28,3.72l1.44,1.3L76,166.2l1.8,2.27l2.22,1.23
	l2.22-1.17l0.91,1.17c0,0,2.05,2.31,2.09,2.33s0.34,2.38,0.34,2.38l1.45,0.63l2.22-2.22l1.64,0.89l1.61-3.41l0.95-0.64l0.73-1.86
	l4.83,0.61l1.72-2.09l1.5,1.84l3.61,0.08l0.89-1.52l-0.22-2.38l1.08-1.88l-1.66-1.17l0.19-2.88l2.72,0.02l0.45-2.63l1.36-0.45
	l1.38,1.52l1.03-0.13l-0.05-2.83c0,0,0.11-1.59,0.17-1.58s2.55,0.08,2.55,0.08l0.92-2.34l1.22-1.7l1.03,1.56
	c0,0,2.17-0.58,2.22-0.58s0.81-1.81,0.81-1.81l1.16-1.98c0,0,0.91-0.45,0.94-0.5s3.05-0.25,3.16-0.14s0.84,4.36,0.84,4.36l1.86,0.03
	l0.16,1.63l2.31-0.13l1.08-1.72l3.78,0.17l1-0.77l4.33,5.33l1.94,0.42c0,0,4.02-3.95,4.05-3.89s2.89,3.41,2.89,3.41l4.97,2.3
	l4.22,4.64l7.08,3.09l0.98,2.03l0.14,3.17l-2.41,2.33l1.5,2.27l2.7,0.14l1.33,2.97l1.44,0.53l-0.08,0.8l-0.09,0.82l-0.11,0.35
	l0.14,0.39l1.41,0.85l0.2,3.19l2.28,0.41l1.11,1.59l3.14-1.42l2.45,0.94l1.77-0.94l4.61-5.13l1.27-1.36l-0.91-0.94l0.64-0.88
	l3.66-2.31c0,0-1.22-1.63-1.27-1.7s-3.05-3.84-3.05-3.84l-0.02-1.09l2.25-3.16c0,0-1.45-1.44-1.5-1.47s0.03-2.78,0.03-2.78
	l1.73-2.02l0.34-3.66l1.11-2.94c0,0,3.08-3.58,3.19-3.63s-1.7-1.16-1.7-1.16s-2.7-1.72-2.75-1.72s-0.91-1.95-0.91-2
	s1.45-2.36,1.45-2.36l5.34-9.97l0.13-3.67l2.31-1.86l0.33-2.64l-1.25-1.72l0.73-1.16l0.86-2.33l0.66-3.31l2.06-1.2
	c0,0-1.13-1.84-1.19-1.83s-0.16-3.59-0.16-3.59l0.89-0.86l6.72-6.77l0.56-2.14l2.44-0.77l0.5-2.08l3.31-1.72l0.92-3.66l4.28-6.08
	l0.75-1.58h-4.39l-0.75-0.92l-1.41,0.17c0,0-5.28-3.05-5.52-3.14s-2.06-1.61-2.06-1.61s-1.16,0.98-1.22,0.98s-3.44-0.13-3.44-0.13
	l-1.34-1.61l-1.3,1.61h-6.17l-0.91-2.19l-3.2-0.13c0,0-0.59-1.97-0.66-2.03s-1.28-0.16-1.28-0.16l-0.39-3.11l-2.31-0.11l-2.28-1.8
	L184,67.98l-4.25,4.02l-2.25-1.44c0,0-2.72,0.8-2.81,0.8s-1.61-0.8-1.61-0.8l-1.77-1.69l-1.86,3.44l-0.72-0.94c0,0,0.02-4.5,0-4.64
	s-2.23-0.22-2.3-0.22s-2.89-2.27-2.95-2.2s-1.34,0.67-1.34,0.67l-1.89-0.73l-0.89,0.63l0.06,1.55l1.13,1.86l-1.63,1.45
	c0,0-3.95-0.84-4-0.83s-1.08-1.23-1.14-1.3s0.66-0.78,0.66-0.78v-1.59l-1.08-0.19l-1.66-2.73l-4.33-4.78l1.3-2.28l-1.91-1.53
	l-1.09-2.27c0,0-3.83-3.02-3.95-3.08s-1.94-0.95-1.98-0.98s-0.83,1.11-0.83,1.11l-2.16,0.95l-4.89-4.97l-1.09,0.86l-2.88,0.11
	l-6.05,4.55c0,0-1.88-0.73-2.09-0.78s-0.25-1.47-0.25-1.52s-1.56-1.55-1.56-1.55l-3.44,0.23l-0.75-0.83l-3.52-3.78l-1.91,1.97
	l-2.7-1.17c0,0-2.59,2.27-2.66,2.22s-2.17-0.72-2.17-0.72l-1.64,1.28h-2.81l-0.27-2.16l-0.67-2.97c0,0-3.64-3.06-3.7-3.09
	s-2.11,0.7-2.16,0.67S90,35.74,90,35.74l-1.64-2.48h-5.14l-1.88-1.64c0,0-1.11-2.42-1.2-2.48s-0.5-1.13-0.59-1.14s-2.36,0-2.36,0
	l-3.47-3.28c0,0-1.91,1.38-1.95,1.38s-2.41,0.14-2.41,0.14l-0.34-2.78l-1.23-1.5l2.41-2.5l-0.7-1.27l-1.42-2.33l-2.48-0.11v-1.5
	l0.84-0.64l0.78-3.13l0.61-2.81l0.73-0.67l1.64-3.05l-0.38-1.7h-1.69L66.52,0.7l-6.19,6.05l-0.75,5.8l-3.56,0.2l-0.97,0.77
	l-3.02,2.94l-2.72,0.13l-1.73-0.58l-2.69-0.52l-2.47-1.23l-2.56,0.92l-0.69,0.57l0.38,0.75l-0.56,1.38l0.09,0.84l1.47,0.81
	l0.34,2.72l-1.53,0.38l-0.25,1.44l-0.09,3.66l1.41,0.84l-0.75,1.53l-4.94,3.78l-0.28,2.44l-4,0.63l0.25,1.47l1.63,2.94
	c0,0-0.78,0.88-0.81,1.03s0.34,1.97,0.34,1.97l-1.22,0.97l0.06,2.38l0.91,1.78l-0.84,0.94l-0.06,4.78l-3.81-2.34l-0.94-1l-1.44,0.22
	l-2.25,2.09l-0.69,1.03l-3.13-0.31l-0.75,1.22l-2.34,0.59l-0.72,0.78l-2.09,0.63l-0.09,1.38l0.84,1.28l-0.13,3.94l2.44,2.44
	l1.41,0.88l-1.16,1.34l-4.31-0.66l-1.25,2.06l1.63,2.72l-2.69,2.13l0.19,1.47l2.19,0.31c0,0,0.94-1.09,1.06-0.94
	s1.41,0.59,1.41,0.59l-0.09,1.44l-5.09,5.63l-1.81,0.66l-1.53,2.5l-1.22,1.03l0.33,3.34l-3.59,3.47l2.59,2.34l0.78,2.02l-1.83,2.39
	c0,0,0.39,1.98,0.44,2s4.36,0.75,4.36,0.75l-3.06,2.52l-0.83,3.72l-1.66,1.83l-1.36,1.34v3.39l1.19,1.2L0.92,119.67z"/>
</svg>
