<?xml version="1.0" encoding="utf-8"?>
<!-- Generator: Adobe Illustrator 15.1.0, SVG Export Plug-In  -->
<!DOCTYPE svg PUBLIC "-//W3C//DTD SVG 1.1//EN" "http://www.w3.org/Graphics/SVG/1.1/DTD/svg11.dtd" [
	<!ENTITY ns_flows "http://ns.adobe.com/Flows/1.0/">
]>
<svg version="1.1"
	 xmlns="http://www.w3.org/2000/svg" xmlns:xlink="http://www.w3.org/1999/xlink" xmlns:a="http://ns.adobe.com/AdobeSVGViewerExtensions/3.0/"
	 x="0px" y="0px" width="204px" height="295px" viewBox="0 0 204 295" enable-background="new 0 0 204 295" xml:space="preserve">
<defs>
</defs>
<path fill="none" stroke="#020202" stroke-miterlimit="10" d="M60.77,290.69c0,0,2.17,2.47,2.59,2.48s1.63,0,1.63,0
	s0.88-0.86,1.08-0.88s2.09-1.77,2.09-1.77l0.77-1.23l-0.73-1.38l-0.28-0.7l0.11-2.3l2.2-0.73l-0.78-4.47c0,0,1.17-0.95,1.2-1
	s0.72-1.69,0.72-1.69l2.12-0.97l1.88-5.64l0.44-2.52l3.34,0.28l0.27-3.05l1.86-2.88l-0.69-2.52l0.13-2.63l2.48,0.09l0.28-1.11
	l-1.44-1.73l0.77-2.78l-0.55-1.38l-1.38,1.81l-1.38-0.19l-0.72-2.45l2-1.72l-0.13-2.38l-1.05-1.84l-1.74-2.47l-2.65-0.33l-3.83-0.5
	l-0.67-1.92l-2.23-0.25c0,0,0.92-1.3,1.11-1.33s1.71-1.28,1.71-1.28l-0.29-2.86l2.92-2.08l-1.34-1.16l-0.39-2.59l1.3-1.67l0.68-1.84
	l-1.63-2.24l-0.43-2.17l1.01-1.19l1.95-1.34l3.45,0.88l1.84-3.56c0,0,1.66-0.25,1.7-0.25s1.16,2.19,1.16,2.19l-0.89,1.77
	c0,0,1.98,2.23,2.03,2.23s2.02-1,2.02-1l-1.07-2l0.52-2.36l2.3-1.52l1.82,1.25l2.19-2.67l4.34,2.38l1.27-1.22l3.94-1.16
	c0,0,2.72-3.06,2.84-3.05s3.13,0.47,3.13,0.47l2.75-1.88l2.79,3.87l3.48-2.36v-2.52l1.77-0.61l0.64-2.25l2.26,0.33l1.34,0.66
	l1.78-0.99l-2.56-1.89l-0.42-1.13l1.99-0.23l1.22-1.11l-0.28-1.19l1.73-1.8l-0.44-1.72l-2.13-0.47l-1.31-1.31l0.75-1.84l-0.23-3.06
	l2.49-0.34l1.57,1.23l3.09,0.45l1.77-1.04l0.23-2.95l-1.53-0.44l-1.06-3.98l-1.08-2.48l-0.17-1.59l4.99-1.63l2.16-3.17l0.53-4.11
	l2.67-0.11l1.86-1.64l1.8-1.16l1.38-1.64l-0.86-1.73l0.43-1.71l2.15-0.85c0,0,1.2-1.72,1.27-1.77s2.89-2.58,2.89-2.58l-1.7-2.08
	l1.93-1.18l-1.15-0.82l-0.56-2.09l0.02-2.34l2.07-0.68l1.46-0.17l0.66-1.9l2.39,1.16l0.88-0.64l2.04,0.56l2,1.44l2.11,1.53
	l1.52,1.63l1.55,2.19l2.97-0.24l1.88-1.51c0,0,1.28-1.58,1.39-1.52s2.17,1.51,2.17,1.51l1-0.78c0,0,1.07-0.52,1.17-0.52
	s2.52-0.02,2.52-0.02l1.95-0.82l2.73-0.5c0,0-1.39-2-1.41-2.05s-1.84-1.63-1.83-1.73s1.06-1.95,1.06-1.95l2.31-0.64
	c0,0,1.08-0.52,1.13-0.56s0.09-2.81,0.09-2.81s2.03-1.28,2.05-1.41s-2.38-3.02-2.23-3.09s2.92-2.95,2.92-2.95l5.28-5.78l0.44-3.55
	c0,0-0.94-1.77-0.91-1.86s1.84-0.38,1.84-0.38l4.64,3.67c0,0,1.91-0.47,1.92-0.41s-0.23-2.33-0.23-2.33l-1.3,0.05l-0.28-3.36
	c0,0,0.78-0.31,0.84-0.39s-0.03-5.55-0.03-5.55s-2.58-1.91-2.41-1.92s2.42-4.55,2.42-4.55l0.67-0.48l-0.06-3.48l-5.41-6.14
	l-0.89-2.27l2.55-0.81c0,0,0.75-1.89,0.83-1.89s2.83-1.36,2.83-1.36l1.55-0.97l-0.34-2.22l2.38-1.94l0.27-3.78l-2.03-1.58
	l-0.86-1.67l0.66-4.41c0,0-0.53-2.06-0.53-2.11s-1.92-0.98-1.77-0.98s0.19-2.52,0.19-2.52l-1.84-2.48l-1.56-1.27
	c0,0-1.97-1.14-1.91-1.3s-2.48-0.52-2.48-0.52l-1.95-1.45l0.17-2.84c0,0-0.98-1.19-0.94-1.3s-0.72-1.69-0.72-1.69l-1.11-0.16
	l-5.88,0.27l-1.05,1.03l-1.92-1.02l-2.41-0.23l-1.3-1.3l-1.58,0.75l-1.73-0.75l-1,1.03l-1.94,0.35l-1.73-2.18l-2.2,0.16l0.02,3.06
	l-1.24,0.48l-1.83-1.22l-2.11,1.23l-1.76-2.28l-0.87,1.96l-1.95,0.06l-0.89-2.48l-4.44,5.64l-2.72-2.95l-1.25-0.78l-2.01,2.24
	l-1.44-0.47l-2.22,0.92l-1.09-2.2l1.38-1.77l-3.25-1.86l-0.12-3.67l-1.97-1.25l-3.64-0.41l-0.04-2.18l-5.21-2.31l-0.75-2.23
	l0.81-1.72l0.81-2.53l-2.02-2.61l-2.45-2.61l-1.23-2.31l-0.41-2.38c0,0-4.14-3.02-4.14-3.08s-0.37-4.46-0.37-4.46l-3.14-1.78
	l-0.5-1.32h-2.52l0.97,3.29l-5.5,1.27l-1.91,1.07l-2.68-1.88l-1.95,1.53l-1.67-1.97l1.63-4.7l-2.82-2.53l-4.1,0.97l-0.36-4.1
	L88.79,4.6l-0.28-1.28l-2.8-0.56l-0.22-1.56L83.4,0.56l-1.31,1.33l-1.34,2.2l-0.45,1.32l-1.97,0.69L77.21,8.3l-1.64-0.41l0.99-2.31
	L74.4,4.75l-1.69,1.3l-1.19-1.3L69.62,5.1l-1.36,1.06l-3.71,0.31l-1.42,1.67l-2.86-1.67l-3.31,2l0.2,1.44l-2.33,2.56l-3.64,0.05
	l-1.27,1.06l-3.22-1.83l-3.34,1.91l-2.33,0.95l1.17,1.67l2.77,1.97L44.2,19.8l2.8,4.03l2.38,0.41l1.13,1l-1.39,2.42l3.49,4.44
	l-1.29,1.1l1.34,2.08l0.06,1.56l1.5,0.8l-0.19,3.64l0.44,2.2l-2.44,1.27l1.97,3.39L53.4,50l-0.63,3.03l3.55-0.35l1.91,0.9
	l-1.38,1.78l-2.05,0.28l-0.93,1.45l-5.12,1.66l-3.13-2l-2.12-0.2l-1.25,1.49l-2.37,0.09l-0.9-2.44l0.71-1.44l-2.17,0.67l-1.02,1.07
	l-2.52,0.01l-1.36,1.7c0,0-1.76,1.32-1.72,1.41s0.98,3.19,0.98,3.19l-3.46,4.19c0,0-1.9,0.9-1.83,1s-2.17-0.4-2.21-0.48
	s-3.71-2.17-3.77-2.17s-3-0.54-3-0.54l-2.5-1.79l-3.4-0.19l-0.56,2.29c0,0,1.58,1.85,1.92,1.85s3.65,0.31,3.98,0.31
	s1.73,1.58,1.92,1.85s2.65,0.81,2.96,0.83s3.25,0.14,3.65,0.17s3.23,0.02,3.56,0.23s1.63,2.21,1.69,2.29s1.42,1.58,1.42,1.58
	s-0.69,2.19-0.38,2.27s2.5,1.79,2.48,1.98s-1.4,1.77-1.65,1.69s-1.6-1.42-1.6-1.42s-1.44,0.52-1.38,0.67s0.77,1.81,1.33,2.23
	s1.38,2.17,1.38,2.46s-0.23,1.63-0.54,1.85s-2.04,1.58-2.04,1.58s-1.62-1.12-1.71-1.33s-1.58-1.65-1.52-2s-0.04-2.08-0.25-2.33
	s-1.31-1.88-1.79-1.96s-1.56-0.38-1.65-0.42s-2.13-1.71-2.19-2.04s-2.15-1.15-2.15-1.15S17,76.9,17.05,77.07s1.4,2.81,1.65,3.29
	s0.31,3.17,0.75,3.29s2.81,1.77,3.06,2s1,1.63,1.42,2s1.38,3.19,1.38,3.27s0.15,1.48,0.15,1.48s0.35,0.04,0.52,0.42
	s-0.23,2.77-0.44,3.15s-1.33,3.27-0.94,3.42s2.5,0.42,3.42,0.75s9.65,6.25,9.77,6.69s0.46,2.4,0.83,2.5s8.5,2.69,10.92,13.86
	s1.04,8.71,1.04,8.71s2,10.79,4.54,11.5s3.79,1.08,3.75,1.67s-1.5,1.21-1.5,1.21l0.54,7.42l-1.5,0.17c0,0-0.96-7.5-1.21-8.21
	s-5.38-3.79-5.58-7s-0.54-14.54-3.63-15.33s-11.46-10.96-11.46-10.96s0.42-4.29,0-4.38s-4.33,1.42-4.5,4.33s-0.58,15.13-0.58,15.13
	l-1.79,9.92l-1.21,5.67l-0.46,8.33l-0.54,5.79l-1.79,11.46c0,0-0.46,2.83,0.08,3.08s1.79,0.33,1.88-0.21s0.5-3.04,0.5-3.42
	s0.83-2.88,1.04-3s1.54-3.17,1.83-3.29s2.33,0.79,2.33,0.79s1.33,3.12,1.58,3.29s2.71,2.29,2.71,2.54s-1.38,2.58-1.88,2.67
	s-3.08-0.08-3.08-0.08l-1.63-1.71c0,0-1-0.75-1.13-0.75s-0.88,1.21-1,1.96s-0.58,3-0.71,3.25s-2,2.75-2.04,3s0.13,2.21,0.21,2.58
	s-1.92,17.38-1.92,17.38s-0.42,9.75-0.63,10s-1.5,3.71-1.54,4s-1.21,8.88-1.21,8.88s-3.75,13.92-3.79,14.42s0.42,3.88,0.21,4.42
	s-1.71,3.96-1.75,4.17s-2.92,3.63-3.04,4.08s-1.33,2.88-1.46,3.25s-1.71,1.83-2.79,2s-4.17,0.75-4.42,0.75s-1.5,0.04-1.5,0.04
	l0.17,3.29c0,0,0.25,0.75,1.04,1s1.58,1.33,1.58,1.33s-0.54,1.04-0.29,1.21s1.04,0.42,1.5,0.38s1.38-0.58,1.5-0.71
	s1.54-0.63,1.67-0.38s0.42,1.83,0.5,2.21s0.33,1.92,0.33,1.92s1.5,0.04,1.79,0.04s1.21-0.58,1.29-0.75s-0.04-1.83,0.54-1.88
	s1.92-0.33,2-0.21s0.08,0.58,0.33,0.88s1.42,0.54,1.75,0.42s2-0.29,2.33-0.13s0.79,1.13,0.83,1.38s-0.17,1.87-0.21,2.17
	s-0.71,2.13-0.71,2.13s-0.88,2.25-1.21,2.75s-1.33,1.21-1.58,1.38s-1.75,1.21-1.38,2.04s1.92,2.79,2.5,3.08s1.88,0.88,2.67,0.88
	s2.17,0.29,2.42-0.08s0.63-0.83,0.67-1.33s0.17-2.13,0.25-2.46s0.58-1.63,0.83-1.75s1.79,0.63,1.71,1.13s-1.25,1.42-1.17,1.92
	s0.46,1.42,0.75,1.54s0.46,0.13,0.79,0.33s0.38-0.13,1.33,0.25s0.83,0.63,1.5,0.75s1.17-0.21,1.63,0s0.83,0.5,1.13,0.83
	s0.63,0.75,1.29,1s1.38,0.54,1.58,0.71s0.54-0.38,1.71,0.21s1.38,0.71,1.92,1.17s0.83,1,1.54,1.25s1.38,0.21,1.75,0.25
	s1.25-0.08,2.29,0.04s1.29,0.25,2.25,0.25s1.13-0.38,2.08-0.75s1.96-0.08,1.96-0.08l0.17,0.83c0,0-0.5,1.88-0.5,2.5
	s-0.13,1.54,0.92,1.92s2.29,0.5,2.75,0.75s0.92,0.75,1.17,1.25s0.58,1.04,0.75,1.42s0.29,0.58,0.5,1.08s0.29,0.72,0.54,1.17
	s0.75,1.08,1.38,1.16s1.04,0,1.5,0s0.88,0.04,1.13-0.33s0.42-0.5,0.42-1.08s-0.38-1.33-0.38-1.33l-0.5-1.13L60.77,290.69z"/>
</svg>
