<?xml version="1.0" encoding="utf-8"?>
<!-- Generator: Adobe Illustrator 15.1.0, SVG Export Plug-In  -->
<!DOCTYPE svg PUBLIC "-//W3C//DTD SVG 1.1//EN" "http://www.w3.org/Graphics/SVG/1.1/DTD/svg11.dtd" [
	<!ENTITY ns_flows "http://ns.adobe.com/Flows/1.0/">
]>
<svg version="1.1"
	 xmlns="http://www.w3.org/2000/svg" xmlns:xlink="http://www.w3.org/1999/xlink" xmlns:a="http://ns.adobe.com/AdobeSVGViewerExtensions/3.0/"
	 x="0px" y="0px" width="600px" height="200px" viewBox="-180.67 -8.91 600 200" enable-background="new -180.67 -8.91 600 200"
	 xml:space="preserve">
<defs>
</defs>
<path fill="none" stroke="#020202" stroke-miterlimit="10" d="M190.08,27.75c0.25,0,0.42,0.33,0.67,0.42s1.08,0.92,1.42,1.17
	s0.33,0.5,0.33,0.5s-0.08,0.58-0.25,1.33s-0.33,1-0.5,1.5s-0.25,0.5-0.5,0.83s-0.25,0.5-0.83,1.67s0,0.58,0,1.17s0,0.5,0,1.17
	s0,0.58-0.08,0.92s-0.5,0.58-1.17,1s-1.08,0.33-1.58,0.58s-1.08,0.42-1.75,0.42s-0.5,0-1.25,0s-0.83,0.25-1.5,1
	s-0.58,1.33-0.58,1.33s0.33,0.25,0.92,0.5s0.83,0.58,1,1.17s0,0-0.08,0.25s0.58,1,0.58,1s0,0,0.75-0.08s0.75-0.92,1.25-1.33
	s0.75,0,1.75,0.33s0.58,1,1.08,1.67s0,0,0.75-0.17s0.67-0.08,1.5-0.25s0.67-1.08,0.75-1.67s0.75-0.75,1-1.33s0.83-0.42,1.75-1.08
	s1.83-0.92,1.67-1.5s0.42-1,0.25-1.75s-0.5-0.33-1.17-1.08s-0.33-1.33-0.33-1.33s-1.83-0.75-2-1.17s0.58-1.5,1-2.17
	s0.75-1.42,1.25-2.17s1.92-1.67,1.92-1.67s0.83,0,2.25-0.17s1.17,0,1.58,0s2.42-0.25,2.75-0.42s0.33-0.75,0.33-0.75l1.67-2.25
	c0,0,0,0,0.67,0s1.5,0.42,1.5,0.42s1.42,0.5,1.83,0.42s0.42-0.42,0.83-1.5s0.75-0.75,1.33-0.83s0.92,0.08,1.17,0.08
	s1.5,0.17,2.08,0.25s1,0.42,1,0.42s1,0.33,2.17,0.67s0.67,0.33,1.25,0.33s0.83,0.33,1.17,0.33s0.83,0.67,0.92,0.92
	s0.25,0.75,0.25,0.75s0,0.75,0,1.5s-0.33,1-0.92,1.42s-0.58,0.58-0.92,0.67s-0.5,0.83-0.5,1.33s0.67,0.67,0.67,0.67
	s0.75,0.58,1.17,0.83s0.92,0.92,1.08,1.17s0.25,1.08,0.25,1.08s0,0-0.83,2.67s0,0-1.5,0.67S221,40.84,221,41.92s0.25,0.67,0.25,0.92
	s-0.58,0.75-1,1.75s-0.08,1.08,0.42,1.42s1.83,0.08,2.42,0.08s1.83,0.75,1.83,0.75v0.42c0,0-0.33,0.92-0.83,1.83
	s-0.42,1.08-0.08,1.58s1.08-0.17,1.42-0.25s1.58,0,2.17,0s1.25,0.33,2.08,1.08s0.92,1.17,1.5,2.42s0.83,1.5,1.58,2.5
	s0.17,1.17,0.17,1.75s0,0.92-0.17,2.17s-0.17,1.08-0.67,2.53s-1.42,1.39-1.92,1.8s-0.83-0.67-2.25-0.42s-1.42,0.83-2.17,1
	S224.92,67,224.92,67s-1.25,0.17-2,1s-0.25,0.5-0.75,1.42s-0.08,0.58,0,2s0.08,0.83,0.33,1.83s0.25,0.67,0.42,1.17s0.25,0.42,0.5,1
	s0.58,0.67,0.58,0.67s0.75,0.25,2.25,0.67s0.5,0.5,0.5,0.5s0,0,1,0.33s0.67,0.17,1.83,0.92s0,0,0.42,0.42s0.17,0.5,0.17,1.08
	s-0.25,0.75-1.08,1.5s0,0-0.42,0.5s0,0,0,0.25s0.08,0.67,0.17,1.17s0.17,0.83,0.5,2.08s0.17,0.58,0.33,1.25s0.83,0.5,1.33,0.92
	s1,0.58,2.58,1.33s0.92,0.67,1.08,1s0.83,1,0.83,1.24s0.08,0.76,0.17,1.35s0.5,0.17,1.33,0.33s0.42,0.17,1.67,0.42s0,0.92,0,1.75
	s-0.33,1-0.67,1.33s-0.58,1.17-1.5,1.92s-0.58,1.5-0.25,2.42s0,0,0.25,0.17s0.67,2.08,0.67,2.83s-0.83,1.83-0.83,1.83l-1.67,0.25
	L234,107.5c0,0-1.33,0-2.5,0s-2.67,1.08-2.92,1.33s-1.61,2.5-1.61,2.5s-2.7,3.28-3.03,2.48s-3.95-2.19-4.3-2.14
	s-2.22,0.25-2.88,0.83s-2.72,0.72-2.72,0.72c-0.58-0.25-1.61,1.09-1.84,1.15s-0.58,0-2.1-0.06s-1.1,0.5-1.46,0.77
	s-0.19,0.81-0.35,1.77s-0.08,0.75-0.25,1.4s-0.17,0.44-0.88,0.81s-0.75,0.08-1.58-0.1s-0.73-0.21-1.73-0.52s-0.69-0.31-1.19-0.6
	s-0.33-1.71-0.46-2.35s-0.15-0.85-0.18-1.02s-0.68-0.77-1.32-0.68s-0.44,0.7-1.06,0.99s-0.56,0.02-0.96-0.25s-1.04-0.81-1.69-0.73
	s-0.35,1.13-0.35,1.19s0,0.46-0.02,0.77s0.35,0.98,0.4,1.19s-0.02,0.69-0.19,0.81s-0.67,0.42-0.81,0.44s-0.88,1.15-1.1,1.69
	s-0.06,0.83,0.06,1.23s0.19,0.23,1.44,0.67s0.31-0.04,0.65-0.46s0.9-0.46,1.73-0.52s0.73,0.5,0.98,0.92s0.19,1.56,0.17,2.06
	s0.48,0.69,0.77,1.25s1,0.92,1,0.92s0.4,5.42,0.31,5.73s-0.15,0.38-0.69,0.4s-0.4-0.08-0.79-0.21s-0.52-0.29-1-1.46
	s-0.23,0-0.92-0.1s-0.35,0.27-0.75,0.54s-0.58,0.58-1.04,0.9s-0.38,0.06-1.04-0.06s-1.23-0.04-2.77-0.21s-0.79,0-1.71,0.35
	s-0.29,0.56-0.63,1.1s-0.69,0.58-1.25,0.96s-0.73,0.33-1.38,0.27s-0.19-0.6-0.58-1s-1.25,0.17-1.63,0.29s-1.67,0.9-1.9,1.06
	s0,0.33,0.85,1.42s-0.25,1.06-0.5,1.38s-0.77,0.77-1.25,0.98s-1.5,0.46-2.13,0.46s-2.04,0.02-2.9,0.08s-0.98,0.27-1.15,0.33
	s-0.73,4.5-0.73,4.5s-0.52,0.98-0.83,1.38s-0.69,0.31-1.73,0.46s-1.15,0-1.42,0s-2.94,0.31-3.13,0.42s0.48,2.1,0.48,2.1
	s-0.1,0.56-0.1,0.77s-0.23,0.23-0.79,0.54s-0.6,0.44-0.92,0.67s-0.48,0.96-0.6,1.83s0.23,0.23,1.1,0.35s0.5,0.75,0.73,1.4
	s0.65,1.81,0.65,1.81s-0.08,0.29-0.23,0.75s-0.25,0.38-0.73,0.83s-0.35,0.33-1,0.48s-0.69,0.17-1.17,0.15s-0.96-0.19-1.52-0.46
	s-0.52-0.33-0.94-0.52s-0.69-0.35-1.1-0.75s-0.54-0.33-1-0.38s-0.65,0.35-0.88,0.6s-0.17,0.92-0.25,1.27s0.27,0.77,0.5,1.06
	s0.25,0.25,0.67,0.77s0.06,0.79-0.15,1.04s-0.75-0.33-1.13-0.31s-0.92,0.35-1.08,0.48s-0.4,1.33-0.4,1.48s0.25,0.73,0.42,1.15
	s0.27,0.65,0.56,0.88s0.52,0.4,1.06,0.88s0.38,0.23,0.98,0.38s0.46,0.25,1.71,0.6s0.33,0.08,0.67,0.04s0.58-0.04,2.29-0.19
	s0.77,0.5,0.92,0.77s0.1,0.73,0.13,1.5s0.42,1.44,0.56,1.75s0.96,0.48,1.23,0.65s1.1,1.48,1.1,1.73s0.21,0.83,0.23,1.75
	s-0.1,0.77-0.25,1.21s-0.23,0.67-0.4,1.08s0.13,0.29,0.46,0.56s0.31,0.25,0.52,0.94s0.1,0.38,0,0.71s-0.83,0.81-1.19,0.83
	s-0.65-0.02-0.92-0.04s-0.17-0.08-0.69-0.42s-0.33-0.69-0.44-1.08s-0.21-0.69-0.42-1.08s-0.38-0.56-0.63-0.56s-0.69,0.27-0.98,0.48
	s-0.29,0.35-0.54,0.85s-0.52,1.63-0.67,1.92s-0.35,0.65-0.85,1.13s-0.79,0.75-1.44,1.06s-0.65,0.33-1.27,0.4s-0.58-0.21-0.92-0.58
	s-0.42-0.92-0.67-1.4s-1.13-1.1-1.35-1.23s-1.63,0.23-1.75-0.21s0.02-0.52,0.08-1.33s-0.23-1.25-0.35-1.44s-0.42-0.13-0.85-0.25
	s-0.44-0.08-0.96-0.15s-0.81-0.04-1.6-0.19s-0.29-0.48-0.48-0.75s-0.52-0.38-0.79-0.31s-1.04,0.46-1.29,0.65s-1.19,0.23-1.88,0.23
	s-0.96-0.15-1.25-0.25s-0.69-1.17-0.71-1.54s-0.02-1.54,0-1.81s-0.35-0.92-0.73-1s-1.67,0.85-1.67,0.85s-0.56-0.88-0.94-1.08
	s-1.17-0.69-1.4-0.77s-1.67,0.54-2.08,0.54s-0.69-0.02-0.73-0.08s-0.52-1-0.52-1.23s0.4-1.65,0.65-2.1s0.48-0.54,1.04-0.9
	s0.81-1.21,0.96-1.67s-0.42-1.21-0.85-1.75s-0.6-0.77-1.1-1.15s-1.52-0.65-1.9-0.56s-1.96,1.5-2.29,2.04s-0.67,1.9-0.83,2.4
	s0.15,1.63,0.23,1.83s2.1,0.77,2.4,0.96s1.42,0.75,1.4,0.92s-0.54,1.94-0.65,2s-3.13,0.71-3.5,0.73s-1.35,1.69-1.35,1.69
	s-1.52,0.96-1.92,0.98s-0.54-1.19-0.63-1.38s-0.15-2.92,0.08-3.27s-0.92-1.35-1.54-1.79s-1.1-0.83-1.21-0.83s-1.75,0.98-2,1
	s-1.38-0.73-1.38-0.73l-1.58,0.13l-0.17,2.75l-0.42,0.32c0,0,0.54,0.45,0.42,0.58c-0.33,0.37-1.71-1-1.71-1l-1.33-1.06l-3.06-2.33
	l-2.92-0.27l-0.4,2.77l-1.27,0.81l-0.56-0.69l-0.35-3.38c0,0-2.98,0.48-3.02,0.6s-2.27,1.85-2.27,1.85l-0.1,2.92l-1.9-0.5l-2.46-2.4
	l-1.73-0.69l-0.15-1.42l-2.42,0.02l-1.27,0.96l0.06-2.44l-0.38-1.88l1.56-0.44l-1.88-2.63l-1.96-1.6l-0.85-0.83l0.23-2.25
	l-0.73-1.67l-0.56-2.15l-2.1-1.67c0,0-0.79-3.44-0.75-3.5s-1.44-1.96-1.44-1.96s0.08-2.27-0.08-2.65s-0.4-3.08-0.4-3.08l-1.92-1.1
	l-2.5-3.75l-1.13-0.96h-2.79L77,130.3l-1.52-1c0,0-1.52,0.69-1.52,0.75s-0.77,2.33-0.77,2.33l-2.06,1.02l-1.96,0.81l-1.29-1.92
	l-0.85-2.02l-0.96-1.85l-0.58-3.4l-2.25-1.56l-3.52,3l-1.88-0.96c0,0-0.73,2.29-0.73,2.4s-1.08,2.15-1.15,2.17s-3.1-2.29-3.1-2.29
	s-2,1.6-2.08,1.67s-0.13,3.19-0.13,3.19L49,133.42l-0.56,0.6l0.1,1.73l-0.46,3.58l-1.17,1.73l-0.73,1.98c0,0-0.46,1.52-0.6,1.52
	s-1.35-0.65-1.38-0.77s-1.04-2.54-1.04-2.54s0.08-2.56,0.15-2.71s0.69-2.77,0.69-2.77l-2.65-0.73l-0.31-1.48l0.02-4.23l-4.13-0.1
	c0,0-1.33-1.69-1.35-1.88s-1.04-1.71-1.1-1.69s-2.1,1.15-2.15,1.54s-1.38,0.83-1.38,0.83l-1.15,1.92l-1.48,1.88
	c0,0-0.71,0.73-0.71,0.9s-0.17,2.9-0.17,2.9l-1.69,0.94l-0.5,1.25l0.17,2.44l-2.69,2.13l-0.52,2.67l-1.75,0.4l-2.83-0.42l-2.1-1.13
	c0,0-2.17-0.21-2.13-0.15s-1.95,0.81-1.95,0.81s-1.06,0.19-1.1,0.31s-0.92,1.77-0.92,1.77s-1.44-1.08-1.42-1.19s0.9-2.67,0.9-2.67
	l-2.69-1.65L7.31,139c0,0-0.21-1.96,0.02-1.98s1.48-0.83,1.5-0.94s-1.38-1.94-1.38-1.94l-1.15-1.92l-2.02-2.06l1.42-1.6l-1.19-2.27
	l-0.02-1.98l-1.63-1.02l-0.15,0.01l1.95-0.82l2.73-0.5c0,0-1.39-2-1.41-2.05s-1.84-1.63-1.83-1.73s1.06-1.95,1.06-1.95l2.31-0.64
	c0,0,1.08-0.52,1.13-0.56s0.09-2.81,0.09-2.81s2.03-1.28,2.05-1.41s-2.38-3.02-2.23-3.09s2.92-2.95,2.92-2.95l5.28-5.78l0.44-3.55
	c0,0-0.94-1.77-0.91-1.86s1.84-0.38,1.84-0.38l4.64,3.67c0,0,1.91-0.47,1.92-0.41s-0.23-2.33-0.23-2.33l-1.3,0.05l-0.28-3.36
	c0,0,0.78-0.31,0.84-0.39s-0.03-5.55-0.03-5.55s-2.58-1.91-2.41-1.92s2.42-4.55,2.42-4.55l0.67-0.48l-0.06-3.48l-5.41-6.14
	l-0.89-2.27l2.55-0.81c0,0,0.75-1.89,0.83-1.89s2.83-1.36,2.83-1.36l1.55-0.97l-0.34-2.22l2.38-1.94l0.27-3.78l-2.03-1.58
	l-0.86-1.67l0.66-4.41c0,0-0.53-2.06-0.53-2.11s-1.92-0.98-1.77-0.98s0.19-2.52,0.19-2.52l-1.84-2.48l-1.56-1.27
	c0,0-1.97-1.14-1.91-1.3s-2.48-0.52-2.48-0.52L14,32.81l0.17-2.84c0,0-0.98-1.19-0.94-1.3s-0.72-1.69-0.72-1.69l0.58-0.25l0.41-1.67
	l3.16-3.86l2.5-0.27l3.7-1.44l3.03,1.2l3.7-3.17c0,0-1.22-1.69-1.31-1.73s-1.98-1.36-1.98-1.36l1.19-1.61l1.77-1.55l0.86-2.14
	l3.75-3.8l2.2,1.61l2.97-0.7l1.11-1l4.53-3.75l3.3-0.69l0.14-0.06l0.23,2.95l1.75,1.97l1.81,0.05l3.89,3.91l3.92-3.19l2.42,3.17
	l1.88-2.64l2.11,0.09c0,0,0.92,1.69,0.87,1.77s0.06,2.05,0,2.06s1.63,0.55,1.63,0.55l0.61-1.09l2.23-1.17c0,0-0.02-2.42,0-2.55
	s1.36,0,1.36,0l1.59-3.09l2.23,4.66l3.83,6.56l0.7,4.5l1.47,0.09l2.33,0.05l1,0.91l1.38,2.92l0.94-1.63l1.8,0.03l3.11,3.02
	c0,0-1.55,4.22-1.56,4.28s0.86,1.3,0.86,1.3s0.58,3.55,0.5,3.63s-1.95-0.03-2.13,0s-2.73,2.02-2.73,2.02l1.08,1.81l-1.64,2.03
	l1.2,1.03l2.14,0.67l0.86,2.11l2.03,0.06l3.48-2.16c0,0,2.92,2.09,2.92,2.17s1.39-2.08,1.39-2.08l2.34,0.5l1.69,2.33l5.28-3.91
	l0.34-5.09l1.73-1.16l2.52,2.69h1.89l0.94-1.95l1.23,1.86l1.19,0.11l1.47-1.67l2.92,0.03c0,0-0.94,2.17-1.13,2.3s1.92,0.7,1.92,0.7
	l0.03,4.11l1.45,0.92l1.56-1.28l1.03-1.17l0.58-3.55l1.64-3.34l-0.05-4.14l1.38-1.25l0.09-3.45l0.67-2.31l1.09-1.84l3.11-0.89
	l1.17,1.38c0,0,2.08,1.17,2.23,1.22s0.84-0.89,0.84-0.89l2.28-0.86l1.97-0.91l1.22,0.89l0.55,2.53l1.77,1.22l2.75,0.14l0.34,2.91
	l2.2,0.41l0.64,3.33l1.7,0.75l2.23,1.47l0.36,3.13l2.3,0.17l1.31-0.78l4.08-3.98l3.34,2.22l-0.03,2.52h3.23l2.11,0.78l1.88-0.73
	l9.97-9.84L190.08,27.75z"/>
</svg>
