<?xml version="1.0" encoding="utf-8"?>
<!-- Generator: Adobe Illustrator 15.1.0, SVG Export Plug-In  -->
<!DOCTYPE svg PUBLIC "-//W3C//DTD SVG 1.1//EN" "http://www.w3.org/Graphics/SVG/1.1/DTD/svg11.dtd" [
	<!ENTITY ns_flows "http://ns.adobe.com/Flows/1.0/">
]>
<svg version="1.1"
	 xmlns="http://www.w3.org/2000/svg" xmlns:xlink="http://www.w3.org/1999/xlink" xmlns:a="http://ns.adobe.com/AdobeSVGViewerExtensions/3.0/"
	 x="0px" y="0px" width="600px" height="200px" viewBox="-200.54 -25.47 600 200" enable-background="new -200.54 -25.47 600 200"
	 xml:space="preserve">
<defs>
</defs>
<path fill="none" stroke="#020202" stroke-miterlimit="10" d="M198.79,58.09l0.08,1.63l-1.1,0.28l-2.03,1.76l-1.38-1.31l-2.27,0.17
	l-0.16,1.5l1.44,1.31l-5.75,5.52l-0.34,1.03l4.73-0.41c0,0,1.2-1.38,1.48-1.17s1.8,1.97,1.8,1.97l-0.44,1.98l-4.5,2.66l-0.06,3.72
	c0,0-4.48,3.5-4.48,3.66s-0.22,1.14-0.22,1.14l-4.88,3.63l-0.25,1.36l-1.98,1.05l1.33,1.53l-5.42,4.2l-1.52,0.17l-1.5,1.33h-3.27
	l-1.67,2.19l1.09,1.75l0.91,2.03l-2.19,3.75l1.38,2.41l-6.8,5.31l-1.36,0.11l-7.25,6.88l-0.11,1.2l1.94,0.91l-3.05,4.72l-1.48,1.66
	l0.61,2.83l-9.97,9.84l-1.88,0.73l-2.11-0.78h-3.23l0.03-2.52l-3.34-2.22l-4.08,3.98l-1.31,0.78l-2.3-0.17l-0.36-3.13l-2.23-1.47
	l-1.7-0.75l-0.64-3.33l-2.2-0.41l-0.34-2.91l-2.75-0.14l-1.77-1.22l-0.55-2.53l-1.22-0.89l-1.97,0.91l-2.28,0.86
	c0,0-0.69,0.94-0.84,0.89s-2.23-1.22-2.23-1.22l-1.17-1.38l-3.11,0.89l-1.09,1.84l-0.67,2.31l-0.09,3.45l-1.38,1.25l0.05,4.14
	l-1.64,3.34l-0.58,3.55l-1.03,1.17l-1.56,1.28l-1.45-0.92l-0.03-4.11c0,0-2.11-0.58-1.92-0.7s1.13-2.3,1.13-2.3l-2.92-0.03
	l-1.47,1.67l-1.19-0.11l-1.23-1.86l-0.94,1.95h-1.89l-2.52-2.69l-1.73,1.16l-0.34,5.09l-5.28,3.91l-1.69-2.33l-2.34-0.5
	c0,0-1.39,2.16-1.39,2.08s-2.92-2.17-2.92-2.17l-3.48,2.16l-2.03-0.06l-0.86-2.11l-2.14-0.67l-1.2-1.03l1.64-2.03l-1.08-1.81
	c0,0,2.56-1.98,2.73-2.02s2.05,0.08,2.13,0s-0.5-3.63-0.5-3.63s-0.88-1.23-0.86-1.3s1.56-4.28,1.56-4.28l-3.11-3.02l-1.8-0.03
	l-0.94,1.63l-1.38-2.92l-1-0.91l-2.33-0.05l-1.47-0.09l-0.7-4.5l-3.83-6.56l-2.23-4.66l-1.59,3.09c0,0-1.34-0.13-1.36,0
	s0,2.55,0,2.55l-2.23,1.17l-0.61,1.09c0,0-1.69-0.53-1.63-0.55s-0.05-1.98,0-2.06s-0.87-1.77-0.87-1.77l-2.11-0.09l-1.88,2.64
	l-2.42-3.17l-3.92,3.19l-3.89-3.91l-1.81-0.05l-1.75-1.97l-0.23-2.95l1.52-0.7l-0.08-4.83c0,0-0.77-1.28-0.73-1.36
	s1.53-1.91,1.59-2.02s-0.89-3.05-0.88-3.09s1.16-2.06,1.16-2.06l-1.88-2.36c0,0-1.23-0.56-1.23-0.63s0.48-1.28,0.48-1.28l0.03-3.83
	l-1.44-3.3c0,0-0.81-4.3-0.77-4.34s-4.44-4-4.44-4l-0.95,0.03l0.42-2.53l2.55-5.09l-1.88-3.48l-0.28-2.36L0.55,57.7l0.22-1.2
	l2.67-0.52l2.73,0.34l0.66-1.58L4.79,53.5c0,0-0.56-2.02-0.36-2.09s1.09-0.77,1.09-0.83s-1.8-3.23-1.8-3.23l-1.39-1.33l-1.39-0.33
	l0.05-2.83l4.38-0.83l3.78-0.83c0,0-0.59-2.56-0.53-2.64s0.58-2.61,0.58-2.61l-1.17-0.83l5.86-5.84l-0.16-2.88l-1.27-2.22
	l-2.28-1.72l-0.16-2.59l-0.95-2.05l-2.25-1.31l-2.11-1.55l5.38-4.7l-0.05-1.8l-1.8-1.89l1.8-2.28l0.27-1.23l2.69,0.5l2.83-1.5
	c0,0,2.2,1,2.34,0.98s2.53-0.94,2.53-0.94l3.56-0.03l0.11-1.39l1.97-0.16l1.08,2.44l2.56-0.48l6.27,7.38l-1.25,1.23l0.92,1.7
	l-1.59,1.38l0.59,0.98c0,0,0.81-0.38,0.86-0.36s1.81,0.33,1.81,0.33l0.45,3.05l2.61-0.92l1.48-0.56l0.17,2.08l1.63,0.33
	c0,0,0.14,2.47,0.17,2.52s1.67,0.48,1.67,0.48l-0.05,2.64l1.09,0.16l0.02,1.45l-0.66,1.42l0.63,0.83l1.92,0.08l0.91,0.03l-0.33,2.39
	v0.78c0,0,10.44-0.05,10.53-0.05s1.34-1.73,1.45-1.7S63,31.1,63,31.1l1.08-0.64l2.03,2l1.42-0.84c0,0,0.97-2.69,1.06-2.39
	s2.56,1.05,2.56,1.05s1.14-1.19,1.23-1.14s1.95,1.2,1.95,1.2l1.69-0.88l3.83-0.02l0.11-1.61l-1.38-1.47l2.97-0.75l8.13,1.75
	c0,0,0.19,1.77,0.2,1.81s2.34,0.45,2.34,0.45l1.33,1.69c0,0-2.03,1.66-1.98,1.69s1.73,0.95,1.84,1.03s1.84-1.34,1.84-1.34
	s1.05,2.61,1.13,2.67s2.84,3.25,2.84,3.25l0.08,1.52L95.74,42l1.94,1.88l0.28,3.72l1.44,1.3l2.02-1.83l1.8,2.27l2.22,1.23l2.22-1.17
	l0.91,1.17c0,0,2.05,2.31,2.09,2.33s0.34,2.38,0.34,2.38l1.45,0.63l2.22-2.22l1.64,0.89l1.61-3.41l0.95-0.64l0.73-1.86l4.83,0.61
	l1.72-2.09l1.5,1.84l3.61,0.08l0.89-1.52l-0.22-2.38l1.08-1.88l-1.66-1.17l0.19-2.88l2.72,0.02l0.45-2.63l1.36-0.45l1.38,1.52
	l1.03-0.13l-0.05-2.83c0,0,0.11-1.59,0.17-1.58s2.55,0.08,2.55,0.08l0.92-2.34l1.22-1.7l1.03,1.56c0,0,2.17-0.58,2.22-0.58
	s0.81-1.81,0.81-1.81l1.16-1.98c0,0,0.91-0.45,0.94-0.5s3.05-0.25,3.16-0.14s0.84,4.36,0.84,4.36l1.86,0.03l0.16,1.63l2.31-0.13
	l1.08-1.72l3.78,0.17l1-0.77l4.33,5.33l1.94,0.42c0,0,4.02-3.95,4.05-3.89s2.89,3.41,2.89,3.41l4.97,2.3l4.22,4.64l7.08,3.09
	l0.98,2.03l0.14,3.17l-2.41,2.33l1.5,2.27l2.7,0.14l1.33,2.97L198.79,58.09z"/>
</svg>
