<?xml version="1.0" encoding="utf-8"?>
<!-- Generator: Adobe Illustrator 15.1.0, SVG Export Plug-In  -->
<!DOCTYPE svg PUBLIC "-//W3C//DTD SVG 1.1//EN" "http://www.w3.org/Graphics/SVG/1.1/DTD/svg11.dtd" [
	<!ENTITY ns_flows "http://ns.adobe.com/Flows/1.0/">
]>
<svg version="1.1"
	 xmlns="http://www.w3.org/2000/svg" xmlns:xlink="http://www.w3.org/1999/xlink" xmlns:a="http://ns.adobe.com/AdobeSVGViewerExtensions/3.0/"
	 x="0px" y="0px" width="600px" height="200px" viewBox="-212.19 -51.84 600 200" enable-background="new -212.19 -51.84 600 200"
	 xml:space="preserve">
<defs>
</defs>
<path fill="none" stroke="#020202" stroke-miterlimit="10" d="M3.31,56.69l2.31-2.47l6.34-0.19l2-1.13c0,0,2.09,0,2.25,0
	s2.69-1.22,2.69-1.22l1.97-0.41l2.22,1.09l1.66,0.03l0.75-2.19v-1.94l-1.91-0.72l-0.63-2.25l-2.84-0.28l-2.31-1.59l-1.69-0.5
	l-0.75,0.28l-1.31,2.88l-1.03,1.25l-1.5-0.16l0.44-3.25v-1.63l0.41-0.75H8.65l0.06-2.09l2.38-0.28v-1.16l-0.16-0.75l1.34-0.59
	l0.88,0.47l-0.66,2.06l1.44-0.25l1.44,1.06l2.09-1l1.84,1.13l2.22-0.03l1.53-0.88l2.03-0.03l1.31,0.84l1.03-1.13l-1.59-1.16
	l-2.19-0.34l-1.13-1.31l-1.72,0.19l-1.25,1.31l-1.19-1.09l-1.31-0.03l0.03-1.25l1.34-1.09l0.94-0.84l1.91-0.72l0.03-1.09l-2.41,0.31
	l-1.88,1.06l-2.22,1.03l-2.63,0.72l-1.75,0.69l-0.84,0.78l-1.88-0.94l-1.44-0.06l-1.13,1.69L2.31,37l-0.38-1.53l-1.06-0.94
	l2.06-1.09l-1.22-1.78l-0.84-1.84l1.28-1.47l1.25-1.06l-1.44-0.88c0,0-0.53-2.47-0.28-2.41s3.91-3.13,3.91-3.13h2.53h1.94l0.63-1.56
	h1.34l0.84-0.56l-1.06-1.63l1.59-0.66l1.84,0.81l1.63-0.81l1.53-1.38h2.19l1.25-1.28l1.59,0.22l0.47,1.91l1.38,0.34l1.94-0.59
	l1.22-1.41l1.03-0.72l1.94-1h2l1.47,0.75l1.03-1.44l1.69-0.91l0.84-0.84l-1.69-1.78l1.41-0.31l1.63,1.53v2.88l1.09,2.75l1.06-1.94
	l0.97,2.41l0.97,0.66l1.63-0.38l-1.09-2.69l0.5-1l0.84-1.38l0.69-1.22l1.84,2.44l2.56-0.88l1.91,1.5l1.5-0.59L56,13.5l1.84-0.13
	l0.47-1.28l-1.88-1.69l2.31-0.88V7.84l-2.31,0.34l0.88-2.16l-0.84-0.88c0,0,2.16-0.56,2.28-0.69s1.84-2.31,1.84-2.31L62.47,4
	l1.41,0.47l1.72,1.56l1.59-2.13L68.87,3l3.53-0.13L73.28,1h1.06l0.25,2.88l1.13-0.63c0,0,2.97-2.75,3.09-2.75s1.97,0,1.97,0
	l-0.56,3.09l1.63,0.88l1.19-0.91l0.72-2.25l1.03,0.03l0.34,1.44l-1.5,1.84l-0.38,2.47l0.59,0.81l2.78-0.19l1.31,1.03l-0.97,1.56
	l0.97,1.56l0.97,0.22l0.66,2.06l1.56,0.25l1.28,1.22l0.53,3.63l0.44,1.03l1.25,0.19l1.88,0.81v2.06l1.31,1.75l0.88-1.97l2.19,0.13
	l4.22-4.63l2.09-0.13l0.81-0.81V15.5l1.53-0.78l1.03,1.34l1.09,0.53l0.94-0.47l2.16-2.59c0,0,0.41-0.81,0.56-0.81
	s1.44,1.25,1.44,1.25l0.16,1.59l-1.22,1.88l1.22,0.16l1.03-1.88l1.19,0.25v1.72l0.78,1.28l1.47,0.84l0.84-1.91
	c0,0,1.56-1.53,1.72-1.53s3.16-0.53,3.16-0.53l1.13,1.56l3.13,7.28l1.84-1.16l-1.34-3.47l-2.31-2.38l-0.47-2.59l1.66-1.38l2.13-1.09
	l3.03-0.31l1.56-0.63l0.53,2.59L136,15.81l1.31,2.28c0,0,2.53,0.78,2.66,0.78s6.53-0.44,6.53-0.44l2.69-2.19l1.63,0.78l1.34,3.19
	l0.25,2.89l1.04,1.11l0.47,0.94l2.31,1.06l0.21,0.96l1.39,1.42l1.77-0.96l0.56-1.35l4.04-4.07l2.41,0.07l1,0.96l3.84,0.72l1.5,0.53
	l-0.44,2.53l0.94,2.03l-1.13,1.59l1.13,2.16l0.56,4.16l-3,3.66l0.72,2.34l0.81,4.66l1.47,5.16l1.06,3.66l0.47,3h-4.19l-2.13,1.91
	l-0.69,3.59l-1.13,2.59l-0.94,1.22L165.5,71l-0.44,2.34h-3.91l-1.81-1.22l-1.88-1.78l-2.25-0.31l-0.78,1.91l-2.06,0.91l-3.06,0.69
	l-0.88,1.16l-1.47,2.06l-0.59,1.31l-1.97,0.44l-1.72,1.06l-1.16-0.84l-1.72,0.84l-1.91-1.16l-2.78,0.97l-1.81,0.19l-1.41,1.22
	l-1.34-0.63l-2.5,1l-0.59,1.25c0,0-1.31-0.13-1.41,0s-0.31,1.28-0.31,1.44s0.81,1.28,0.81,1.28l-1.19,1.22l0.5,3.56l-2.81,0.97
	l-0.63,2.03l-2.25-1.13l-1.25,0.97l-1.41-1.19l-1.34,0.31l-0.94,2.78l-1.66,0.91c0,0-1.75-1.19-1.88-1.09s-0.56,1.09-0.56,1.09
	l-1.09-1.22l-1.59,1.47h-1.63l0.19-3.06l2.28-0.63l-1.88-1.5l-1.81-1.03L104.72,92l-3.44-0.13l-1.34-0.81l-1.81,1.97l-2.25-0.81
	l-2.38,1.22l-2.22-0.25l-0.59-1.78l-1.06-2.47l2.72-0.06l2.94,0.56l1.38-1.72l1.72-1.75l-0.44-1.38l-2.28,0.72l-0.75-1.63
	l-1.22,1.19l-2.78-0.44l-1.91,1l-0.28,0.88l-1.59-0.06L86,85.47L86.59,88l-2.22-0.06l-1.94-1.19l-1,1.19l-3.38-0.19l0.41,3.47
	c0,0,0.97,1.69,1.16,1.69s1.16,1.66,1.16,1.66l-2.91,0.66l-1.5-1.66l-0.41-2.72l-0.03-2.38l0.66-2.91l-2.13-2.13l-1.56-1.78
	l-2.22-0.78l-1.97-0.72c0,0-2.28,0.13-2.03-0.13s1.09-1.78,1.25-2.09s2.31-2.69,2.31-2.69l-1.31-1.09l-1.97,1.28L65.19,79
	l-2.34,0.38l-1.91-0.88l-1.31-4.13l-6.5-0.69l-2.75-1.72c0,0-0.88,1.63-2.31,1.47S45,72.53,45,72.53l-4.91-5.91l-1.97,0.06
	l-0.5,2.91l-2.56-1.41l-2.59-0.16l-1.75,1.16l-1.38-2.03l-1.59,1.59l1.59,1.34l1.84,1.53l-2.28,1.75c0,0-2,0.13-2.28,0.13
	s-4.13-0.88-4.13-0.88s-3-1.06-2.75-1.16s2.5-2.59,2.5-2.59l-1.13-1.81l-1.19-3.03l-1.81-2l-4.03-3.72L12.12,58l-1.75,1.13
	l-1.31-1.56l-3.84-0.13L3.31,56.69z"/>
</svg>
