<?xml version="1.0" encoding="utf-8"?>
<!-- Generator: Adobe Illustrator 15.1.0, SVG Export Plug-In  -->
<!DOCTYPE svg PUBLIC "-//W3C//DTD SVG 1.1//EN" "http://www.w3.org/Graphics/SVG/1.1/DTD/svg11.dtd" [
	<!ENTITY ns_flows "http://ns.adobe.com/Flows/1.0/">
]>
<svg version="1.1"
	 xmlns="http://www.w3.org/2000/svg" xmlns:xlink="http://www.w3.org/1999/xlink" xmlns:a="http://ns.adobe.com/AdobeSVGViewerExtensions/3.0/"
	 x="0px" y="0px" width="600px" height="200px" viewBox="-229.05 -13.13 600 200" enable-background="new -229.05 -13.13 600 200"
	 xml:space="preserve">
<defs>
</defs>
<path fill="none" stroke="#020202" stroke-miterlimit="10" d="M0.51,120.6l0.1-4.69l0.94-0.29l-0.29-4.17l1.48-1.92l2.52-3.75v-3.23
	l1.02-2.94l1.94-3.94c0,0-2.06-1.67-1.79-1.77s2.13-4.56,2.13-4.56h1.71l4.98,2.65l1.13-1.13l-2.04-2.21l1.44-1.81l2.19,1.94
	l0.88-1.94h2.42l3.27-1.63l1.06-0.92l-0.83-2.23l2.83-2.81l2.48-0.5l3.02-3.98l0.13-2.17l-0.88-2.1l2.63-1.9l1.83-2.38
	c0,0-1.54-1.92-1.52-2s1.29-1.92,1.29-2s-2.5-1.29-2.5-1.29l-0.13-2.17l1.94-2.29l1.31-2.33l2.65-0.31l-1.25-1.58h-2.71l-1.08-1.67
	l-0.48-0.4l1-1.24l-1.02-1.83l-0.52-2.52L32.2,42.9l1.02-1.13l0.32-1.72l3.9-0.44l3.92-3.05l0.8-2.36l-0.78-0.72l-0.22-1.5l0.2-2.16
	l-0.41-1.34l-5.38-6.15l-0.41-4.41l2-0.16l0.31-2.31l4-0.45l3.25-0.82l1.78-1.46h1.88l0.73-2.28h1.66l1.17,1.63l6.67,0.45L60,11.55
	l0.62-1.87l-0.67-1.96l2.06-1.8l3.11-0.85l0.41-2.09l-0.95-0.61l0.25-1.54l1.8-0.28l2.63,4.07l0.08,1.75l1.62,0.58l0.14,2.18
	l-1.08,0.92l-0.06,1.41l0.8,1.2l1.61,0.39v1.38l-1.7,1.45l-0.05,1.38l1.14,0.83l2.29,4.02l1.85,0.65l0.27,2.48l2.22,0.06l1.17,1.48
	v1.81l1.16,3.7l2.25,0.96l1.48,1.74c0,0,2.02-1.79,2.06-1.67s0.17,2.78,0.17,2.78l1.53,0.44l0.7,3.02l-0.59,2.45l-0.94,2.08
	l2.02,0.72l2.81-0.3l2.28-1.3l1.81-0.06l2.86-2.12l1.16,0.31l0.75,1.8l2.13,0.21l1.48-1.52l1.74,0.88l2.89,0.66l0.72,3.64l3.52,1.09
	l0.14,1.92l-0.52,2.69l-1.96,0.58l-0.57,1.98l1.98,0.36l1.53-0.32l0.78-0.65c0,0,5.29,0.13,5.27,0.2s1.47,0.63,1.47,0.63l2-0.92
	l2.24-2.08l1.04,0.06l0.28,2.64l1.69-0.77l1.41-1.48l2.42-0.61l0.64-0.71l3.91,2.67l1.17,2.05l0.14,2.45l2.11,1.77l1.39,2.25
	l0.19,2.92l-5.84,5.77l1.24,0.98l-0.63,2.41l0.49,2.67l-8.13,1.75l-0.03,2.83l1.39,0.3l1.34,1.45l1.88,3.08l-1.29,0.9l0.41,1.86
	l2.11,1.47l-0.63,1.53l-2.81-0.39l-2.63,0.48l-0.28,1.36l1.91,1.14l0.36,2.31l1.92,3.61l-2.63,4.95l-0.24,2.32l0.99,0.26l4.19,4.12
	l0.81,4.02l1.31,3.38l0.02,3.92l-0.42,1.42l1.33,0.56l1.69,2.31l-0.92,2.04l0.65,3.09l-1.47,1.98l0.72,1.39l0.04,4.87l-1.5,0.7
	l-3.3,0.69l-4.53,3.75l-1.11,1l-2.97,0.7l-2.2-1.61l-3.75,3.8l-0.86,2.14l-1.77,1.55l-1.19,1.61c0,0,1.89,1.31,1.98,1.36
	s1.31,1.73,1.31,1.73l-3.7,3.17l-3.03-1.2l-3.7,1.44l-2.5,0.27l-3.16,3.86l-0.41,1.67l-7.36,0.38c0,0-0.95,1.05-1.02,1.02
	s-1.86-1-1.86-1l-2.64-0.17l-1.25-1.45c0,0-1.41,0.92-1.48,0.92s-1.69-0.88-1.69-0.88l-1.06,1.02l-1.83,0.39l-1.84-2.19
	c0,0-2.2,0.09-2.2,0.16s0.05,2.97,0.05,2.97s-1.06,0.5-1.14,0.59s-1.83-1.22-1.88-1.22s-2.19,1.14-2.19,1.14l-1.75-2.17l-0.86,1.92
	l-1.91,0.02l-0.8-2.48l-4.59,5.69l-2.78-3.06l-1.08-0.67l-2.11,2.33c0,0-1.25-0.58-1.33-0.56s-2.27,1.16-2.25,1.11
	s-1.25-2.33-1.25-2.33l1.58-1.88l-3.47-1.77l-0.11-3.63l-1.84-1.39l-3.7-0.41l0.03-2.02l-5.27-2.39l-0.77-2.2l0.97-1.92l0.67-2.38
	l-4.5-5.31l-1.27-2.17l-0.27-2.44c0,0-4.3-3.05-4.28-3.09s-0.34-4.34-0.34-4.34l-3.22-1.86l-0.42-1.34l-2.44,0.11l0.95,3.31
	l-5.55,1.14c0,0-1.84,1.2-1.95,1.17s-2.59-2.06-2.59-2.06l-2,1.67l-1.63-2.02c0,0,1.61-4.61,1.63-4.66s-2.83-2.64-2.83-2.64
	l-2.73,0.53c0,0-1.41,0.63-1.41,0.56s-0.25-4.16-0.25-4.16l-1.89-0.13l-0.27-1.09l-2.14-0.38L0.51,120.6z"/>
</svg>
