<?xml version="1.0" encoding="utf-8"?>
<!-- Generator: Adobe Illustrator 15.1.0, SVG Export Plug-In  -->
<!DOCTYPE svg PUBLIC "-//W3C//DTD SVG 1.1//EN" "http://www.w3.org/Graphics/SVG/1.1/DTD/svg11.dtd" [
	<!ENTITY ns_flows "http://ns.adobe.com/Flows/1.0/">
]>
<svg version="1.1"
	 xmlns="http://www.w3.org/2000/svg" xmlns:xlink="http://www.w3.org/1999/xlink" xmlns:a="http://ns.adobe.com/AdobeSVGViewerExtensions/3.0/"
	 x="0px" y="0px" width="600px" height="200px" viewBox="-275.22 -43.59 600 200" enable-background="new -275.22 -43.59 600 200"
	 xml:space="preserve">
<defs>
</defs>
<path fill="none" stroke="#000000" stroke-miterlimit="10" d="M10.5,31.46c0,0,3.33-2.5,4-3.17s2.33-1.17,3.17-2.17s3.33,0,3.83,0
	s2.67-1.83,2.67-1.83l1.33-3.67h6.67l2,2.67L34.52,23c0,0,0.19,0.38,0.19,0.88s0.25,0.56,0.44,0.94s0.38,0.06,0.88,0.06
	s0.63,0,1.13-0.13s0.19-0.63,0.25-1.38s0-1.13,0-1.69s0.31-1.13,0.56-1.75s0.44-1,0.5-1.5s-0.13-1.25-0.38-1.69
	s-0.31-0.88-0.69-1.56s-0.31-1.13-0.81-2.38s-0.13-0.63-0.25-1.69s0.5-0.94,0.75-1.31S37.9,8.5,37.9,7.38s-0.13-0.88-0.31-1.69
	s-0.06-1.5-0.06-2.63S37.96,2,38.08,1.82s1.06-0.88,1.44-1.19s0.5,0,1.69,0.35s1.13,0.09,1.75,0.01s0.69,0.58,1.06,1.08
	s0.63,1.13,0.75,1.75s0.19,0.81,0.25,1.81s0.5,1.44,0.56,2.06s0.13,1.38,0.13,1.88s0.25,0.94,0.25,0.94s0.13,3.19,0.06,3.5
	s0,0.81-0.13,1.56s-0.25,1.38-0.38,1.94s-0.56,1.63-0.56,2.06s-0.06,1.06-0.25,1.69s-0.38,2.13-0.38,2.56s0.31,0.75,0.31,1
	s0.06,1.38,0.06,1.38s0.44,1.38,0.63,1.5s0.56,0.63,0.69,0.81s0.63,1.13,1,1.75s0.44,0.94,0.56,1.31s0.25,0.81,0.38,2.13
	s0,0-0.5,1.13s0,1.25,0.13,1.88s0.13,0.5,0.13,0.5s0.31,4.88,0.19,5.19s-0.31,0.88-0.5,1.38s-0.06,0.63-0.19,1.31
	s0.19,1.44,0.19,1.81s0.69,1.44,1.06,2.25s0.25,0.56,0.55,1.31s-0.11,2.25-0.11,2.81s0.25,4.13,0,5.06s-0.5,3.06-0.5,3.06
	l-4.94,10.44c0,0-0.25,0.38-0.69,0.81s-0.44,0.94-0.82,1.38s-0.87,1.94-1.06,2.75s0.25,1.31,0.25,2s0,0-0.13,0.31s0,1.25-0.19,1.81
	s0.06,0.94,0.25,1.69s0.31,1.19,0.69,2.25s0.06,1.63,0,2.5s-0.13,1.5-0.44,2.56s0.06,0.75,0,1.31s-0.31,0.63-0.75,0.94
	s-0.44,0.63-1.5,1s0,0-0.81,0.13s-0.88,0.31-1.69,0.56s-0.69,0.75-0.94,1.06s0.75,1,0.75,1s1.5-0.75,1.75-0.81s1.31,0,1.5,0.06
	s0.38,0.69,0.44,1.13s-0.5,1.56-1,2.13s0,0.56,0,0.56s-0.56,1-1.38,1.25s-0.81,0.44-1.72,1.06s0.16,0.75-0.03,1.81s0.13,1.31,0,2.06
	s-0.31,0.44-0.62,0.75s-0.38,0.06-0.75,0.06s-0.31,1.25-0.31,1.25l0.19,0.5c0,0-0.13,1.06-0.13,1.5s0.69,0.75,0.94,1.56
	s-0.25,0.69-0.63,0.81s-0.88-1.25-1.25-0.63c0,0-0.13,0.56-0.38,0.94s-1.25,0.38-2.06,0.38s-1-0.69-1.19-0.88s-0.81-1.31-1-1.38
	s-1.13,0.19-2,0s-0.25-1.13-0.25-1.13s0.81-1.75,0.81-1.94s-1.13-1-1.56-1.25s-0.88-0.5-1.25-0.81s-0.94-0.56-1.38-0.63
	s-1.88-0.31-3-0.63s-1.13-0.69-1.56-0.81s-2-1-2.75-1.31s-1.75-1.19-1.75-1.19s-0.94-0.75-1.69-2.19s-0.19-1.5-0.19-1.75
	s0.38-2.19,0.5-2.44s1.75-0.5,2.06-0.5s1.63-0.63,2.19-0.94s1-0.44,1.75-0.94s0.06-1.5-0.13-1.94s-0.5-0.06-1.75-0.34
	S16.02,89,14.96,89s-0.81,0.06-1.5,0.25s-1.19-0.44-1.19-0.44s-0.13-1.44-0.38-2.25s-0.56,0.31-1.06,0.56s-0.69,0.5-1.25,0.63
	s-2.19-0.56-2.44-0.81s0.38-1.19,0.56-1.25S9.15,84.25,9.08,84s0.13-1.5,0.38-1.5s2.31-1.25,2.38-1.56s-0.75-0.75-0.94-1.31
	s1-1.38,1.31-2.06s0.88-1.69,0.88-1.69s-0.69-1.19-1.19-1.5s-2.44,0.56-2.44,0.56s-2.06,1.44-2.44,1.44s-2.88-0.44-3.13-0.44
	s0.31-2.06,0.31-2.06s-1.19-1.56-1.06-2.69s3,0,3,0s0.44-1.19,0-1.69s1.31-2,1.56-2s2.06-1.19,2.06-1.19l-0.19-1.5
	c0,0-0.13-0.81-0.38-0.88s-1-0.63-1-0.63s-1.75-1.25-2.56-1.75s-1.44-1.19-2-1.75s-1.63-1.75-1.75-2.38s0.06-1.31,0-1.75
	s-1.13-1.06-1.13-1.44s1.63-1.69,2.81-2.13s1.88-0.69,2.13-1s0.25-0.5,0.25-0.69s-0.38-0.81-0.56-0.88s-1.38,0.06-1.63,0
	s-0.06-1.13,0.06-1.31s0.94-1.63,0.94-1.94S2.5,46.3,2.5,46.3s0,0-0.67,0.5S0.5,45.96,0.5,45.3s2.2-2.72,2.87-3.56
	s0.3,0.06,0.97-0.44s1.17-1.67,1.17-1.67L10.5,31.46z"/>
</svg>
