<?xml version="1.0" encoding="utf-8"?>
<!-- Generator: Adobe Illustrator 15.1.0, SVG Export Plug-In  -->
<!DOCTYPE svg PUBLIC "-//W3C//DTD SVG 1.1//EN" "http://www.w3.org/Graphics/SVG/1.1/DTD/svg11.dtd" [
	<!ENTITY ns_flows "http://ns.adobe.com/Flows/1.0/">
]>
<svg version="1.1"
	 xmlns="http://www.w3.org/2000/svg" xmlns:xlink="http://www.w3.org/1999/xlink" xmlns:a="http://ns.adobe.com/AdobeSVGViewerExtensions/3.0/"
	 x="0px" y="0px" width="600px" height="200px" viewBox="-251.21 -63.46 600 200" enable-background="new -251.21 -63.46 600 200"
	 xml:space="preserve">
<defs>
</defs>
<path fill="none" stroke="#020202" stroke-miterlimit="10" d="M2.56,19.31l0.4-2.14l-1.56-0.4L2.04,15l-0.35-0.96l-1.15-0.88
	l0.29-1.71l3.06-0.85l5.07-0.79l2.23-9.06l2.29-0.22l0.48,2.15l3.56,0.04l0.67,1.16l3.14,0.48l2.83-0.15l2.27-0.84l3.82-2.21
	l1.22,1.38l4.61,0.57l1.72,1.6l3.13-2.04l1.63,2.09l3.59,0.06l3.38,2.41l2.61,0.2l1.52,2.18L55.7,8.2l5.18,2.28l2.45-1.98l3.24,2.03
	l0.93-1.18l6.7,0.15l0.83-1.46l3.36-0.26l1.89,0.82l0.19,1.57l1.17,1.02l-0.07,1.3l-1.45,1.38l0.9,1.09l3.35,3.77h2.41l-0.1,1.23
	l3.24,0.36l0.49,2.97l2.4,1.67l1.18-0.4l0.24,3.22l-3.25,3.48l2.34,2.12L94,35.4l-1.65,2.44l0.31,2.02l4.29,0.9l-2.87,2.35l-0.9,3.8
	l-3.09,3.02L90,53.33l1.43,1.25l-0.92,0.96l-1.83-0.12l-0.4,1.65l-3.38,0.07l-2.18,0.82l-2.52-0.88l-3.05,1.44l-2.76-0.57
	l-0.46,1.38l-1.69,2.33l1.69,1.83v1.6l-4.5,4.79l-0.75,1.06l-2.44,0.63l-1.39,1.58c0,0-1.57,0.77-1.72,0.73s-0.31-2.67-0.31-2.67
	l-1.15-0.06l-2.04,2l-2.08,0.88l-1.5-0.5l-5.27-0.29l-0.73,0.71l-1.46,0.21l-2.19-0.23l0.79-2.1l1.85-0.48l0.52-2.67l-0.25-1.92
	l-3.44-1.19l-0.69-3.79l-2.9-0.35l-1.79-1l-1.23,1.6l-2.25-0.23l-0.73-1.96l-1.17-0.13l-2.83,2.08l-1.85-0.04l-2.27,1.25
	c0,0-2.69,0.33-2.79,0.31s-2.06-0.69-2.06-0.69l0.98-1.94L25,58.19l-0.73-3l-1.65-0.35l-0.15-2.81l-2.04,1.54l-1.58-1.6l-2.15-1.02
	l-1.23-3.69l0.1-1.96l-1.19-1.5h-2.25l-0.19-2.46l-2.04-0.46l-2.23-4.19l-1.06-0.71l0.04-1.48l1.65-1.4v-1.46l-1.63-0.4l-0.71-1.19
	v-1.44l1.04-0.92l-0.19-2.06l-0.56-0.31L5.31,25v-1.75l-2.29-3.29L2.56,19.31z"/>
</svg>
