<?xml version="1.0" encoding="utf-8"?>
<!-- Generator: Adobe Illustrator 15.1.0, SVG Export Plug-In  -->
<!DOCTYPE svg PUBLIC "-//W3C//DTD SVG 1.1//EN" "http://www.w3.org/Graphics/SVG/1.1/DTD/svg11.dtd" [
	<!ENTITY ns_flows "http://ns.adobe.com/Flows/1.0/">
]>
<svg version="1.1"
	 xmlns="http://www.w3.org/2000/svg" xmlns:xlink="http://www.w3.org/1999/xlink" xmlns:a="http://ns.adobe.com/AdobeSVGViewerExtensions/3.0/"
	 x="0px" y="0px" width="600px" height="200px" viewBox="-180.31 -8.72 600 200" enable-background="new -180.31 -8.72 600 200"
	 xml:space="preserve">
<defs>
</defs>
<path fill="none" stroke="#020202" stroke-miterlimit="10" d="M1.02,146.69c0,0-0.25-0.83-0.44-1.02s0-2.44,0-2.58
	s2.23-0.85,2.23-0.85l-0.4-2.23c0,0-0.48-2.06-0.48-2.13s1.31-1,1.31-1s0.33-1.6,0.46-1.71s2.48-0.88,2.48-0.88l1.6-5.35
	c0,0,0.56-2.58,0.58-2.88s3.38,0.13,3.38,0.13s0.25-2.88,0.25-3s1.06-1.5,1.06-1.5s0.85-1.31,0.85-1.4s-0.46-1.44-0.56-1.63
	s-0.17-0.77-0.17-0.77l0.06-2.67c0,0,2.31,0.19,2.5,0.19s0.25-1.25,0.25-1.25s-1.19-1.6-1.27-1.65s0.69-2.85,0.69-2.85
	s-0.44-1.25-0.54-1.25s-1.02,1.54-1.1,1.56s-0.94,0.15-1.46,0.15s-0.81-2.44-0.81-2.52s1.77-1.63,1.94-1.83s-0.23-2.63-0.23-2.63
	l-0.85-1.56c0,0-1.73-2.27-1.85-2.42s-2.38-0.5-2.38-0.5s-4-0.27-4.15-0.38s-0.52-1.67-0.63-1.79s-2.29-0.38-2.29-0.38l1.21-1.48
	l1.58-1.27l-0.23-2.79l2.96-2.06c0,0-1.33-1.1-1.42-1.08S4.85,84.8,4.85,84.8L6,83.21c0,0,0.71-1.69,0.71-1.75s-1.65-2.54-1.65-2.54
	s-0.33-1.79-0.33-1.85s1.44-1.85,1.44-1.85l1.56-0.88l3.46,0.83c0,0,1.69-3.27,1.81-3.48s1.71-0.31,1.71-0.31l1.21,2.1l-1.02,1.9
	l2.21,2.17l1.79-1l-1.02-1.9l0.52-2.17l2.38-1.94l1.77,1.54l2.19-2.79c0,0,4.19,2.19,4.33,2.35s1.19-1.13,1.19-1.13l4.13-1.21
	l2.85-3.21l3.15,0.67l2.56-2l2.96,3.88l3.52-2.27l-0.06-2.5c0,0,1.75-0.54,1.81-0.54s0.46-2.35,0.52-2.4s2.02,0.19,2.35,0.5
	s1.27,0.58,1.27,0.58s1.75-1.06,1.79-1.13s-1.63-1.15-2.29-1.54s-0.73-1.21-0.73-1.27S56,57.71,56,57.71s1.17-0.88,1.25-1
	S57,55.46,57,55.46l1.83-1.83l-0.5-1.75c0,0-1.77-0.4-1.9-0.4s-1.6-1.19-1.65-1.29s0.75-1.6,0.83-1.83s-0.21-3.15-0.21-3.15
	l2.48-0.35l1.44,1.31c0,0,3.15,0.4,3.25,0.44s1.75-1,1.77-1.1s0.21-2.67,0.23-2.88s-1.46-0.44-1.46-0.44s-0.81-2.63-0.81-2.94
	s-0.4-1.48-0.4-1.48s-1.02-1.92-1-1.98s-0.23-1.35-0.21-1.48s2.08-0.79,2.08-0.79l2.79-1.1l2.35-3.21l0.5-4.08l2.58,0.02l1.75-1.63
	l1.77-1.1l1.54-1.79c0,0-0.83-1.6-0.9-1.65s0.29-1.81,0.29-1.81l2.21-0.88l1.21-1.75l1.6-1.25l1.5-1.29c0,0-1.94-2.06-1.92-2.13
	s2.06-1.04,2.06-1.04L81.1,7.8c0,0-0.67-1.48-0.63-1.56s-0.13-2.56-0.1-2.63s1.79-0.69,1.83-0.79s1.6-0.15,1.6-0.15l0.83-1.98
	l2.38,1.23c0,0,0.75-0.6,0.75-0.71s2.13,0.44,2.13,0.44l1.92,1.56l2.17,1.46l1.71,1.69c0,0,1.13,2.15,1.46,2.15s3.08-0.21,3.08-0.21
	s1.52-1.21,1.54-1.27s1.56-1.67,1.56-1.67s1.96,1.48,2.15,1.48s0.92-0.81,0.92-0.81l1.31-0.44l2.52-0.1l1.63,1.02l0.02,1.98
	l1.19,2.27l-1.42,1.6l2.02,2.06l1.15,1.92c0,0,1.4,1.83,1.38,1.94s-1.27,0.92-1.5,0.94s-0.02,1.98-0.02,1.98l-1.08,2.15l2.69,1.65
	c0,0-0.88,2.56-0.9,2.67s1.42,1.19,1.42,1.19s0.88-1.65,0.92-1.77s1.1-0.31,1.1-0.31s1.98-0.75,1.95-0.81s2.13,0.15,2.13,0.15
	l2.1,1.13l2.83,0.42l1.75-0.4l0.52-2.67l2.69-2.13l-0.17-2.44l0.5-1.25l1.69-0.94c0,0,0.17-2.73,0.17-2.9s0.71-0.9,0.71-0.9
	l1.48-1.88l1.15-1.92c0,0,1.33-0.44,1.38-0.83s2.08-1.52,2.15-1.54s1.08,1.5,1.1,1.69s1.35,1.88,1.35,1.88l4.13,0.1l-0.02,4.23
	l0.31,1.48l2.65,0.73c0,0-0.63,2.63-0.69,2.77s-0.15,2.71-0.15,2.71s1.02,2.42,1.04,2.54s1.23,0.77,1.38,0.77s0.6-1.52,0.6-1.52
	l0.73-1.98l1.17-1.73l0.46-3.58l-0.1-1.73l0.56-0.6l1.65-0.79c0,0,0.04-3.13,0.13-3.19s2.08-1.67,2.08-1.67s3.04,2.31,3.1,2.29
	s1.15-2.06,1.15-2.17s0.73-2.4,0.73-2.4l1.88,0.96l3.52-3l2.25,1.56l0.58,3.4l0.96,1.85l0.85,2.02l1.29,1.92l1.96-0.81l2.06-1.02
	c0,0,0.77-2.27,0.77-2.33s1.52-0.75,1.52-0.75l1.52,1l0.88,1.96h2.79l1.13,0.96l2.5,3.75l1.92,1.1c0,0,0.23,2.71,0.4,3.08
	s0.08,2.65,0.08,2.65s1.48,1.9,1.44,1.96s0.75,3.5,0.75,3.5l2.1,1.67l0.56,2.15l0.73,1.67l-0.23,2.25l0.85,0.83l1.96,1.6l1.88,2.63
	l-1.56,0.44l0.38,1.88l-0.06,2.44l1.27-0.96l2.42-0.02l0.15,1.42l1.73,0.69l2.46,2.4l1.9,0.5l0.1-2.92c0,0,2.23-1.73,2.27-1.85
	s3.02-0.6,3.02-0.6l0.35,3.38l0.56,0.69l1.27-0.81l0.4-2.77l2.92,0.27l3.06,2.33l1.33,1.06l1.71,1l1.58,3l2.06,2.48l0.63,2.38
	L233,62.11l-0.23,2.79l3.48,1.08l2.13,2.83l1.5,2.15l-1.98,1.6l-7.08,6.15l-1.15,1.29l1.02,2.02l0.33,2.9c0,0-1.85,1.9-1.94,2.1
	s-0.83,1.65-0.85,1.75s1.06,1.87,1.06,1.87l-0.79,1.53c0,0-2.35-1.5-2.35-1.52s-3.44,0-3.44,0s-0.46,2.38-0.5,2.56
	s-2.25,1.35-2.25,1.35l0.04,1.67l2.21,0.65l-2.27,1.88l-3.25,1.69l-1.23,1.94l-1.69,0.25l-1.88,2.98l-1.73,1.54l-2.23-0.96
	l-0.88-3.69l-1.21-1.75c0,0-1.58-0.58-1.96-0.73s0.54-0.94,0.54-0.94l-0.17-1.65c0,0-2.98,0.69-3.06,0.69s-2.38,1.35-2.56,1.35
	s-2.67,1.48-2.67,1.48l-2.17,1.21c0,0-1.5,0.81-1.77,0.88s-1.15,2.02-1.21,2.06s-0.83,1.9-0.83,1.9l-2.13,0.79l-0.58,1.92
	c0,0-1.29,1.42-1.38,1.42s-2.6,0.81-2.6,0.81l-2.81,2.56l-1.6,2.1l-1.21,2.19c0,0-4.92,0.13-5.35,0.15s-3.27,2.98-3.27,2.98
	s-3.27,1.56-3.38,1.65s-0.96,2.29-0.96,2.29l-2.31,3.92l-1.83,1.46c0,0-0.75-2-0.77-2.1s-1.44,0.58-1.44,0.58l-0.63,1.71l-0.23,1.94
	l2.4,0.71l-1.04,2.35l-0.58,1.92l-0.56,1.69c0,0-1.25-1.15-1.35-1.25s-0.1,2.19-0.08,2.31s1.27,1.69,1.27,1.69l-0.88,0.71
	l-0.42,1.81l-2.48,2.27l0.46,2.56l3.15,1.38l-0.31,6.69l-0.81,1.17l1.25,0.75l0.44,7.5l0.52,1.19l1.44,0.44l2.5,2.79l2.46,3.48
	c0,0-1.83,0.5-2.19,0.6s-2.19,0.96-2.19,0.96l-1.73-0.9l-1.13-3.4l-2.83,1.38l-1.21-1.38c0,0-1.31,2.06-1.33,2.13
	s-1.19-0.4-1.27-0.42s-1.65-0.08-1.98-0.08s-0.88,1.38-0.88,1.38l-2.65,2.06c0,0-2.06-1.21-2.25-1.21s-1.54,1.19-1.54,1.19
	l-1.58,1.56l1.21,2.02c0,0-2.13,0.85-2.23,0.83s-2.17-0.9-2.17-0.9l-1.48-0.56l-1.1,2c0,0-2.15-0.52-2.21-0.54s-2.77-3.35-2.83-3.44
	s-2.13-0.69-2.13-0.69l-2.25-0.02l-2.79-2.52c0,0-1.75,0.15-1.85,0.17s-1.63,1.42-1.77,1.54s-2.25-1.35-2.67-1.4
	s-0.21,2.42-0.21,2.42l-4.35,2.85l-1.15,0.44l-3.5-3.5l0.33-2.65c0,0,2.15-1.71,2.15-1.79s-0.73-1.38-0.73-1.38l-2.02,2.38h-1.9
	l-3.65-2.63l-3.88,0.31l-0.98-1.69l-0.08-2.04l1.46-1.58v-1.4c0,0-1.33-0.75-1.48-0.79s0.15-1.6,0.15-1.6l-1.17-0.08l-3.52,0.17
	l-1.19-0.67c0,0-0.96-1.44-0.96-1.54s-1-0.06-1-0.06l-1.6,0.69l-0.96-0.1l-0.31,1.9l-0.85,1.21c0,0-1.46-0.35-1.6-0.42
	s-0.67-1.19-0.81-1.35s0-1.31,0-1.4s-1.02-0.9-1.02-0.9l-0.33-1.15l-1.19-1.44l-0.69-1.58l-1.17,0.77l-2.02-0.15l-1.21-0.52
	c0,0-1.15-0.42-1.23-0.42s-0.98,0.69-0.98,0.69l-0.9,0.42l-1.35-0.1l-0.83-1.33c0,0-0.71-1.54-0.73-1.6s-0.48-1.4-0.5-1.48
	s-0.6-0.71-0.6-0.71s-1.94,0.75-2.04,0.73s-0.31-0.83-0.31-0.83l-2.48,0.23v-0.85l-1.27-0.17l-1.13,0.79c0,0-0.58,0.17-0.79,0.06
	s-0.83-1.38-0.83-1.38l-1.25-0.4l-1.08-1.02c0,0-1.54-0.29-1.6-0.31s-1.02-0.81-1.08-0.81s-0.56,0.92-0.56,0.92l-1.04-0.1
	c0,0-1.42-1.38-1.56-1.52s-0.81-0.63-0.9-0.63s-0.92,0.83-0.92,0.83l-1.19,0.73c0,0,0.85,1.75,0.85,1.85s-0.67,0.83-0.67,0.83
	l-0.4,1.67l0.44,1.67l1.44,1.88l-0.75,1.9l-2.25-0.06c0,0-1.08-1.1-1.15-1.13s-1.4,1.81-1.4,1.81s-1.46-1.79-1.52-1.79
	s-1.94,1.19-1.94,1.19l-1.38,0.56l-1.71,0.19l-1.88-0.69l-0.71-1.75l-0.81-0.44l-1.31,1.35c0,0-0.85,1.35-0.92,1.35
	s-0.5,0.73-0.5,0.73l-0.75,0.17l-1.38-1.65l-0.6-1.31l-1.54-0.69c0,0-0.69-0.98-0.81-1.06s-1-0.06-1-0.06s-1.69,0.9-1.75,0.9
	s-0.46,1.06-0.46,1.06l-2.44-0.25l-0.85,0.75l-1.44-0.02l-1.17,1.23c0,0-1.31,0.73-1.35,0.67s-0.4-1.02-0.4-1.02l-1.38-0.54
	l-1.08-1.35l-1.13-0.19l-0.56-1.85l-1.25-1.21l-0.19-1.35l-2.29-0.13c0,0-1.31-1.48-1.37-1.54s-1.63-0.88-1.69-0.9
	s-0.65-0.81-0.65-0.81l-0.69-0.9l-0.85,0.19L1.02,146.69z"/>
</svg>
