<?xml version="1.0" encoding="utf-8"?>
<!-- Generator: Adobe Illustrator 15.1.0, SVG Export Plug-In  -->
<!DOCTYPE svg PUBLIC "-//W3C//DTD SVG 1.1//EN" "http://www.w3.org/Graphics/SVG/1.1/DTD/svg11.dtd" [
	<!ENTITY ns_flows "http://ns.adobe.com/Flows/1.0/">
]>
<svg version="1.1"
	 xmlns="http://www.w3.org/2000/svg" xmlns:xlink="http://www.w3.org/1999/xlink" xmlns:a="http://ns.adobe.com/AdobeSVGViewerExtensions/3.0/"
	 x="0px" y="0px" width="600px" height="200px" viewBox="-232.95 -25.37 600 200" enable-background="new -232.95 -25.37 600 200"
	 xml:space="preserve">
<defs>
</defs>
<path fill="none" stroke="#020202" stroke-miterlimit="10" d="M19.65,117.21l-2.4-2.81l-0.06-2.93l3.08-2.36l0.7-1.44l-0.78-0.81
	l-1.5-0.26l-1.94-5.84l0.38-1.63l-0.54-1.43l0.54-1.25l1.68-2.07l0.03-0.5l-2.17-0.73l3.77-3.56l-2.16-2.61l-1.8-6.12l-3.54-2.47
	L5.18,69.6l-4.15-0.25l0.39-0.46l3.33-3.93l1.67-4.75l2.75-1.25l3.67,1.92l1-0.33v-0.83l-5.08-4.08l-1.17-1.58l0.58-0.92l0.42-0.5
	h0.77l0.19-2.66l2.28-0.44h0.81l-0.06-1.03l-2.25-0.53l-0.31-3.63l0.78-0.22l0.13-0.38l-0.13-5.69L12.04,37l-0.91-1.22l-0.09-5.69
	l-1.19-0.56l0.09-3.28l2.16-3.44l0.59-1.13l-1.06-3.66l-0.78-1c0,0-0.06-1.53,0.09-1.56s1.41-0.5,1.41-0.5l2.22-0.19l5.81-5.16
	l2.72-0.5l2.53-0.56l3.38-1.31l3.88,0.16V6.57h4.38l0.19-0.72h1.56L39.2,5h1.75h0.53l0.34-0.72l2.19-0.16l0.19-0.56h6.06l0.88-0.84
	l2.19-0.63l1.03-0.81l1.84-0.66l0.97,2.25l0.19,3l0.59,1.5l2.53,2.16l-0.16,1.13l-2,1.69l1.13,2.91l-0.56,1.44l0.56,1.13l0.47,1.03
	l1.22,0.53l0.72-0.66l0.5-0.13l0.81,0.22l3.91,4.94V25l0.59,0.5l2.88-0.03l1.88,1.31l0.63-0.97l1.22-2.09l2.44-0.81l1.88-0.53
	l2.38-0.53l0.94-0.59l0.56-1.19l1.5,0.06l2.94,5.63l1.63,0.5l0.38,2.03l0.47,0.59l-0.88,2.78l0.88,0.59l0.56,1.63l0.22,4.56
	l2.94,1.34v0.78l2.91,0.09L96.23,40l1.94-0.31l0.81-1.84l1.59,0.56l0.78,1.91l0.81,0.41l3.66-0.03l2.06,3.5l0.53,0.03l-0.25,4.09
	l-1,0.63l0.13,0.69l0.78,0.78l0.19,1.78l1.13,1.22l0.28,0.66l1.41-2.03l1.66-2.53l3.5,0.13l1.78,1.94l0.22,0.66l2.09-0.13l1.5-1.03
	l1.44-0.44l1.38-1.13l4.78,5.16l0.75,0.47l2.75,0.5l0.91,1v0.88l-3.13,2.38l0.09,1.34l-0.72,0.75l0.06,2.88l2.41,0.13l-0.09,2.5
	l1.38,1.22v0.81l-3.91,1.88l-0.84,1.06l0.31,0.97l1.34,1.38l0.72,0.59l0.5,0.84l1.22,0.88l0.38,0.75l-0.56,1.38l0.09,0.84l1.47,0.81
	l0.34,2.72l-1.53,0.38l-0.25,1.44l-0.09,3.66l1.41,0.84l-0.75,1.53l-4.94,3.78l-0.28,2.44l-4,0.63l0.25,1.47l1.63,2.94
	c0,0-0.78,0.88-0.81,1.03s0.34,1.97,0.34,1.97l-1.22,0.97l0.06,2.38l0.91,1.78l-0.84,0.94l-0.06,4.78l-3.81-2.34l-0.94-1l-1.44,0.22
	l-2.25,2.09l-0.69,1.03l-3.13-0.31l-0.75,1.22l-2.34,0.59l-0.72,0.78l-2.09,0.63l-0.09,1.38l0.84,1.28l-0.13,3.94l2.44,2.44
	l1.41,0.88l-1.16,1.34l-4.31-0.66l-1.25,2.06l1.63,2.72l-2.69,2.13l0.19,1.47l2.19,0.31c0,0,0.94-1.09,1.06-0.94
	s1.41,0.59,1.41,0.59l-0.09,1.44l-5.09,5.63l-1.81,0.66l-1.53,2.5l-1.22,1.03l-1.13,0.31l-2.44-1.63l-0.63-3.13L91.1,145l-0.06-1.19
	l-2.25-0.03L85.23,140l-0.66-0.97l1.38-1.59l0.13-1.22l-1.34-0.97l-0.06-1.5l-1.72-0.91l-3.66,0.28l-0.56,1.47l-6.97-0.16
	l-0.78,1.28l-3.2-2.28l-2.64,2.13l-5.06-2.38l-1.91,1.5l-1.5-2.16l-2.88-0.22l-3.38-2.41l-3.59-0.06l-1.63-2.09l-2.94,2.03
	l-1.72-1.56l-4.81-0.59l-1.22-1.38l-3.41,2.22l-2.34,0.81l-3.03,0.19l-3.28-0.5l-0.44-1.16l-3.66-0.06l-0.3-2.16l-1.26-1.13
	l-0.16-2.06l1.37,0.09l1.5,1.69l1.39-0.02l0.64-1.66l-1.86-1.91l-0.05-2.2L19.65,117.21z"/>
</svg>
