<?xml version="1.0" encoding="utf-8"?>
<!-- Generator: Adobe Illustrator 15.1.0, SVG Export Plug-In  -->
<!DOCTYPE svg PUBLIC "-//W3C//DTD SVG 1.1//EN" "http://www.w3.org/Graphics/SVG/1.1/DTD/svg11.dtd" [
	<!ENTITY ns_flows "http://ns.adobe.com/Flows/1.0/">
]>
<svg version="1.1"
	 xmlns="http://www.w3.org/2000/svg" xmlns:xlink="http://www.w3.org/1999/xlink" xmlns:a="http://ns.adobe.com/AdobeSVGViewerExtensions/3.0/"
	 x="0px" y="0px" width="600px" height="200px" viewBox="-213.24 -37.03 600 200" enable-background="new -213.24 -37.03 600 200"
	 xml:space="preserve">
<defs>
</defs>
<path fill="none" stroke="#020202" stroke-miterlimit="10" d="M0.83,26.88l-0.29-3.9h2.15l3.83,2.07l5.75,1.51l2.02,1.15l1.69,0.73
	l1.54-0.85l3.73-0.21l1.02-1.19l0.31-1.5l2.67,0.02l1.25-0.83l4.46,0.85l1.31,1.29l0.65,1.44l0.33,2.08l1.04,0.92l-1.04,1.1
	l-1.17,1.02l-1.58,0.44l0.02,3.56l5.56,7.56l0.4,3.31l1.13,1.02l1.52-0.25l0.52-1.71l0.71-1.33l7.58,0.19l1.17,0.96l1.77,0.58
	l3.73,0.83c0,0,6.04,0.6,6.13,0.63s0.96,0.75,0.96,0.75h1.98l1.25-0.94l2.02,0.29l0.81,0.65h4.48l7.83,3.92l6.63-1.25l11.48-7.69
	l4.06-1.06l6.46-0.81l-7.29-1.1c0,0-1.92-1.17-1.98-1.17s-2.13,0.52-2.13,0.52l-3.08-2.25v-3l2.44-4.73l1.27-4.44l2.15-2.29
	l5.02-1.54l15.63-8.81l6.56-0.08c0,0,6.21-2.9,6.29-2.9s6.9-0.56,6.9-0.56l6.19-3.77l7.4-5.6l3.85,0.17l7.75,8.88l3.52,2.29
	l1.14,3.67l0.58,2.42l2.19,2.65l-3.77,3.63l2.17,0.73l-0.02,1.52l-1.58,1.02l-0.56,1.31l0.52,1.29l-0.4,1.63l0.52,1.38l0.75,2.65
	l0.79,2.02l1.29,0.15l0.63,0.79l-0.56,1.33l-3.11,2.31l-0.08,2.98c0,0,2.54,2.77,2.56,2.83c0.02,0.06,0.06,3.58,0.06,3.58l1.69,1.79
	l-0.44,1.75h-1.38l-1.23-1.63l-1.48-0.14l0.02,2.02l1.23,1.33l-2.53,0.27l-2.04,9.11l-5.62,0.87l-2.71,0.71l-0.13,1.71l1.15,0.94
	l0.46,1.08l-0.92,1.67l1.58,0.25l-0.35,2.19l-1.96,0.17l-0.15,1.6l1.08,0.56l-0.44,2.15l-3.23,0.81l-2,1.88l0.52,1.98l-0.39,1.71
	l-1.52,1.08l-6.75-0.48l-1.46-1.63l-1.25,0.02l-0.63,2.35h-2.1l-1.56,1.4l-3.21,0.85l-4.1,0.42l-0.21,2.35l-2.1,0.1l0.25,4.48
	l5.73,6.29l0.21,1.02l-0.15,2.35l0.08,1.38c0,0,0.77,0.83,0.75,0.9s-0.83,2.29-0.83,2.29l-3.79,3.04l-4.02,0.4l-0.33,1.77
	l-1.02,1.13l1.79,1.63l0.44,2.65l1.06,1.81l-1.13,1.19l-1.88,0.67l-3.29-4.6l-2.48-0.35l-1,1.08l-3.17-0.31l-1.63-1.88l-0.06-2.21
	l-3.06,0.33l-0.88-0.96l-1.17-0.6l-0.13-3.92l-0.67-1.58c0,0,0.65-1.38,0.65-1.54c0-0.17-2.92-2.75-2.92-2.75l-1.56-0.88l-1.75,0.17
	l-2.17,0.69l-2.35,1.42l-1.77,1.42l-1.96,1.52l-0.79,1.69l-2.1,0.1l-0.96-0.85l-1.58,0.73l-0.56-4.46l-4.1-0.17c0,0-1.25-3-1.21-3.1
	s0.6-2.1,0.6-2.1l-2.1-1.38l-0.73-0.77l-1.52,0.19l-0.27,2.56l-1.4,0.73l-2.4-0.15l-1.04,1.94l-1.6-1.42l-2.29-0.81l-1.06,0.67
	h-2.25l-1.79,2.08l-2.71,0.15l-0.96,1.46l-1.4-2.35l-1.35,1.04l-2.48,1.67l-1.4-1.17l-2.94-2.25l-3.42,0.17l-0.71-1.77l-1.17,0.21
	l-1.4,2.15l-2.25-0.52l-3.08-1.65l-3.69-0.81l-0.94-0.67l-2.52-0.06l-4.27,3.83l-0.17,1.38l-1.9,0.85l-1.69-1.13l-0.06-1.21
	l-2.13-0.79l-0.77-1.25c0,0-1.06-0.73-1.06-0.81s0.04-2.94,0.04-3s-1.02-1.67-1.02-1.67l-0.52-1.15c0,0,0.4-0.52,0.5-0.52
	s4.29-0.6,4.35-0.6s2.83-0.71,2.83-0.71L26,93.92l-1.52-0.31l-2.54-0.6l-1.38-1.46l-0.19-1.69l-1.27-0.83l-1.4-0.58l0.17-5.33
	l-1.31-0.81l1.15-2.25l0.63-5.29l-0.48-2.77l-1.21-1.27v-4.04l-0.77-0.83l0.29-2.21l0.96-1.21l-0.58-2.83l-0.79-2.19
	c0,0-1.38-0.42-1.38-0.48s-0.88-2.69-0.88-2.69l-2.83-5.29l-2.23-2.31c0,0-2.63,0.13-2.54,0.08c0.08-0.04-0.04-6.29-0.04-6.29
	L5.12,38.8c0,0-2.1-2.1-2.04-2.13s1.38-2.38,1.38-2.38l0.75-2.6L4.5,28.49l-1.48-0.81l-0.79-0.63L1.1,26.9L0.83,26.88z"/>
</svg>
