<?xml version="1.0" encoding="utf-8"?>
<!-- Generator: Adobe Illustrator 15.1.0, SVG Export Plug-In  -->
<!DOCTYPE svg PUBLIC "-//W3C//DTD SVG 1.1//EN" "http://www.w3.org/Graphics/SVG/1.1/DTD/svg11.dtd" [
	<!ENTITY ns_flows "http://ns.adobe.com/Flows/1.0/">
]>
<svg version="1.1"
	 xmlns="http://www.w3.org/2000/svg" xmlns:xlink="http://www.w3.org/1999/xlink" xmlns:a="http://ns.adobe.com/AdobeSVGViewerExtensions/3.0/"
	 x="0px" y="0px" width="600px" height="200px" viewBox="-219.08 -30.19 600 200" enable-background="new -219.08 -30.19 600 200"
	 xml:space="preserve">
<defs>
</defs>
<path fill="none" stroke="#020202" stroke-miterlimit="10" d="M19.98,56.42l0.17-2.75l1.58-0.13c0,0,1.13,0.75,1.38,0.73s1.9-1,2-1
	s0.58,0.4,1.21,0.83s1.77,1.44,1.54,1.79s-0.17,3.08-0.08,3.27s0.23,1.4,0.63,1.38s1.92-0.98,1.92-0.98s0.98-1.67,1.35-1.69
	s3.4-0.67,3.5-0.73s0.63-1.83,0.65-2s-1.1-0.73-1.4-0.92s-2.31-0.75-2.4-0.96s-0.39-1.33-0.23-1.83s0.5-1.85,0.83-2.4
	s1.92-1.96,2.29-2.04s1.4,0.19,1.9,0.56s0.67,0.6,1.1,1.15s1,1.29,0.85,1.75s-0.4,1.31-0.96,1.67s-0.79,0.44-1.04,0.9
	s-0.65,1.88-0.65,2.1s0.48,1.17,0.52,1.23s0.31,0.08,0.73,0.08s1.85-0.63,2.08-0.54s1.02,0.56,1.4,0.77s0.94,1.08,0.94,1.08
	s1.29-0.94,1.67-0.85s0.75,0.73,0.73,1s-0.02,1.44,0,1.81s0.42,1.44,0.71,1.54s0.56,0.25,1.25,0.25s1.63-0.04,1.88-0.23
	s1.02-0.58,1.29-0.65s0.6,0.04,0.79,0.31s-0.31,0.6,0.48,0.75s1.08,0.13,1.6,0.19s0.52,0.02,0.96,0.15s0.73,0.06,0.85,0.25
	s0.42,0.63,0.35,1.44s-0.21,0.9-0.08,1.33s1.52,0.08,1.75,0.21s1.1,0.75,1.35,1.23s0.33,1.02,0.67,1.4s0.29,0.65,0.92,0.58
	s0.63-0.08,1.27-0.4s0.94-0.58,1.44-1.06s0.71-0.83,0.85-1.13s0.42-1.42,0.67-1.92s0.25-0.64,0.54-0.85s0.73-0.48,0.98-0.48
	s0.42,0.17,0.63,0.56s0.31,0.69,0.42,1.08s-0.08,0.75,0.44,1.08s0.42,0.39,0.69,0.42s0.56,0.06,0.92,0.04s1.08-0.5,1.19-0.83
	s0.21-0.02,0-0.71s-0.19-0.67-0.52-0.94s-0.63-0.15-0.46-0.56s0.25-0.65,0.4-1.08s0.27-0.29,0.25-1.21s-0.23-1.5-0.23-1.75
	s-0.83-1.56-1.1-1.73s-1.08-0.33-1.23-0.65s-0.54-0.98-0.56-1.75s0.02-1.23-0.13-1.5s0.79-0.92-0.92-0.77s-1.96,0.15-2.29,0.19
	s0.58,0.31-0.67-0.04s-1.1-0.46-1.71-0.6s-0.44,0.1-0.98-0.38s-0.77-0.65-1.06-0.88s-0.4-0.46-0.56-0.88s-0.42-1-0.42-1.15
	s0.23-1.35,0.4-1.48s0.71-0.46,1.08-0.48s0.92,0.56,1.13,0.31s0.56-0.52,0.15-1.04s-0.44-0.48-0.67-0.77s-0.58-0.71-0.5-1.06
	s0.02-1.02,0.25-1.27s0.42-0.65,0.88-0.6s0.58-0.02,1,0.38s0.69,0.56,1.1,0.75s0.38,0.25,0.94,0.52s1.04,0.44,1.52,0.46
	s0.52,0,1.17-0.15s0.52-0.02,1-0.48s0.58-0.37,0.73-0.83s0.23-0.75,0.23-0.75s-0.42-1.17-0.65-1.81s0.15-1.27-0.73-1.4
	s-1.23,0.52-1.1-0.35s0.29-1.61,0.6-1.83s0.35-0.35,0.92-0.67s0.79-0.33,0.79-0.54s0.1-0.77,0.1-0.77s-0.67-2-0.48-2.1
	s2.85-0.42,3.13-0.42s0.38,0.15,1.42,0s1.42-0.06,1.73-0.46s0.83-1.38,0.83-1.38s0.56-4.44,0.73-4.5s0.29-0.27,1.15-0.33
	s2.27-0.08,2.9-0.08s1.65-0.25,2.13-0.46s1-0.67,1.25-0.98s1.35-0.29,0.5-1.38s-1.08-1.25-0.85-1.42s1.52-0.94,1.9-1.06
	s1.23-0.69,1.63-0.29s-0.06,0.94,0.58,1s0.81,0.1,1.38-0.27s0.92-0.42,1.25-0.96s-0.29-0.75,0.63-1.1s0.17-0.52,1.71-0.35
	s2.1,0.08,2.77,0.21s0.58,0.38,1.04,0.06s0.64-0.63,1.04-0.9s0.06-0.65,0.75-0.54s0.44-1.06,0.92,0.1s0.6,1.33,1,1.46
	s0.25,0.23,0.79,0.21s0.6-0.08,0.69-0.4s-0.31-5.73-0.31-5.73s-0.71-0.35-1-0.92S97.5,11,97.52,10.5s0.08-1.65-0.17-2.06
	s-0.15-0.98-0.98-0.92s-1.4,0.11-1.73,0.52s0.6,0.9-0.65,0.46s-1.31-0.27-1.44-0.67S92.27,7.15,92.5,6.6s0.96-1.67,1.1-1.69
	s0.65-0.31,0.81-0.44s0.23-0.6,0.19-0.81s-0.42-0.88-0.4-1.19s0.02-0.71,0.02-0.77s-0.29-1.1,0.35-1.19s1.29,0.46,1.69,0.73
	s0.33,0.54,0.96,0.25s0.42-0.89,1.06-0.99s1.29,0.51,1.32,0.68s0.05,0.37,0.18,1.02s-0.04,2.06,0.46,2.35s0.19,0.29,1.19,0.6
	s0.9,0.33,1.73,0.52s0.88,0.48,1.58,0.1s0.71-0.17,0.88-0.81s0.08-0.44,0.25-1.4s0-1.5,0.35-1.77s-0.06-0.83,1.46-0.77
	s1.88,0.13,2.1,0.06s-0.04-0.54,0.54-0.29s0.56-0.73,0.9,0.88s1.08,2.5,1.21,2.58s0.1-0.46,0.31,0.38s0.15,0.85,0.21,1.31
	s0,0.92,0.52,1.19s0.83,0.23,0.92,0.23s2.4,0.08,2.4,0.25s0.04,0.63,0.19,1.31s0.25,1.44,0.33,1.94s0.21,0.67,0.21,0.9
	s-0.1,2.08,0,2.42s1.6,1.88,2.52,2.46s2.92,1.75,3.67,1.92s1.92-0.17,2.38-0.42s0.63-0.79,1.38-0.46s1.33,0.63,1.75,1.13
	s1.21,1.17,1.21,1.75s-0.29,1.67-0.58,1.88s-0.88-0.54-0.83,0.25s0.58,1.25,0.58,1.63s-0.25,1.08,0.13,1.67s0.29,0.79,0.88,0.92
	s1.42,0.42,1.5,0.71s0.17,0.42,0.29,1s0.67,2.29,0,2.42s-1.75-0.04-1.96-0.21s-1.21-0.79-1.88-0.42s-0.96,1.13-0.96,1.54
	s0.04,0.46-0.08,1.21s-0.25,1.54-0.75,2.38s-0.67,0.79-0.83,1.17s-0.54,0.83-0.63,1.04s-0.75-0.17-1.38,0.42s-1.25,1.17-1.21,1.96
	s-0.21,1.21,0,1.71s1.33,1.87,1.88,2.29s0.75,0.46,1.04,1.04s1.29,0.71,0.38,1.5s-1.29,0.67-1.63,1.33s-0.58,0.58-0.58,1.17
	s-0.21,0.75,0.04,1.29s0.04,0.21,0.71,1.25s0.83,1.46,1.21,2.25s0.21,0.88,0.88,1.75s0.75,1.08,1.21,1.88s0.79,1.04,1.46,1.38
	s0.96,0.54,1.42,0.63s1.54,0,1.75,0.08s2.5,0.96,3.58,1.29s1.5,0.08,2.29,1.04s0.88,1.54,1.25,1.96s0.33,0.63,1.13,0.88
	s0.96,0.21,1.42,0.29s0.42,0.08,1,0.08s1.42-0.67,1.79,0.08s-0.29,0.67,0.46,1.17s0.75,0.5,1.42,0.5s0.71,0,1.63,0
	s0.79,0.08,1.46-0.13s1.21-0.46,1.38-0.63s1.79-1.21,2.42-1.29s0.67-0.5,1.83-0.5s1,0.17,1.67-0.46s0.79-1,1.38-1.13
	s1.42-0.92,1.63-0.13s0.33,0.5,0.21,1.96s-0.21,1.71-0.42,2.04s-0.54,1.13-0.04,1.58s0.71,0.63,1.04,0.79s0.75,0.37,0.83,0.67
	s0.21,0.5,0.29,0.67s-0.71,1.21-0.88,1.38s0.04,0-0.54,0.96s-0.75,1.92-0.71,2.38s0.37,0.83,0.04,1.08s-0.67,0.38-1.17,0.83
	s-0.21,0.21-1.08,1s-1.17,1.21-1.71,1.46s-0.96,0.04-1,0.67s1.04-0.21-0.17,1.17s-1.29,1.58-1.38,1.79s-0.5,0.29-0.67,0.54
	s-0.83,0.96-0.79,1.58s0.37,1.08,0.58,1.58s0.71,2.29,0.83,2.63s0.29,0.42,0.33,1.08s-0.29,1.5-0.83,1.33s-0.79-0.54-1.25-0.21
	s-0.33,0.29-0.96,0.96s-0.79,1.08-1.33,0.71s-1.29-1-1.63-0.88s-0.5,0.24-0.46,1.02s0.25,0.77-0.17,1.19s-1.54,0.62-1.67,0.71
	s-1.04,0.71-1.96,0.58s-3.29,0.08-3.54,0.02s-0.67,0.57-0.96,1.4s-0.42,1.58-0.83,1.83s-1.21,0.08-1.71,0.25s-1.04-0.29-1.13,1.21
	s0.08,1.46-0.13,2.17s0.13,0.96-0.33,1.75s-0.96,1.54-1.5,1.54s-0.17,0.17-1.25,0s-1.29-0.44-2.17,0.07s-0.75,0.22-1.79,0.68
	s-1.29,0.13-1.46,1.17s-0.08,1.33-0.67,2.25s-0.46,0.75-1.04,1.75s-0.54,1.21-1.33,2s-0.79,0.92-1.54,1s-0.96,0.04-1.79,0
	s-0.83-0.25-1.5-0.25s-0.58-0.96-1.5,0.08s-0.88,0.83-0.96,1.83s0.08,0.46-0.38,1.54s-0.33,1.88-1.17,2.04s-1.29,0.21-1.29,0.21
	s0.58,0.79-0.46,1.17s-0.62,0.04-1.79,0.67s-1.08,0.17-1.17,0.63s-0.04,0.92,0.67,1s1.46,0.04,2.21,0s1.67,0.08,1.63,0.67
	s-0.42,1.08-0.75,1.5s-0.92,0.75-0.42,1.21s1.79,0.58,1.5,1.17s-1.21,0.83-1.54,1s-0.75,0.08-0.96,0.5s0.29,0.13-0.13,1.08
	s-0.67,1.21-1.17,1.25s-0.75,0.29-0.96,0s-0.42-0.58-0.54-1s-0.92-1.58-1.17-1.58s-0.29-0.71-0.63,0.17s-0.63,1.29-0.88,1.58
	s-0.63,0.71-1.04,0.75s-1.87-0.17-2.17-0.04s-0.38-0.05-0.63,0.26s-0.29,0.53-0.71,0.82s-0.29,0.46-0.96,0.29s-1.29-0.29-1.29-0.29
	s-0.46,2.54-0.88,2.96s-0.08,1.38-1.67,0.83s-0.92-2.38-1.29-2.54s1.08-0.21-0.96-0.33s-1.5-0.67-2.46-0.29s-1.85-1.13-1.96,0.46
	s-0.33,2.83-0.33,3.67s1.46,0.21,0,1.33s-0.71,0.92-2.54,1.08s-2.58,0.29-2.58,0s-0.67-0.38,0.29-1.5s1.21-1.25,1.46-1.92
	s2.08-1.62,0-0.96s-1.96,0.67-2.29,1s-0.46,0.96-1-0.08s0.79-0.75-0.67-1.29s-1.25-0.79-2.17-0.71s0.04,0.54-1.42,0.08
	s-1.58-1.67-1.71-0.38s1.67,0.17,0.58,1.58s-1.46-0.08-1.46,1.63s-0.04,2.46-1.21,2.5s-1.08,0.75-1.42-0.29s0.96-0.13-0.71-1.63
	s-2-1.25-2.17-1.88s0.5-1.33,0.58-1.79s0.71-0.54-0.46-1s-0.75-0.42-1.17-0.46s-0.25,0.08-1.08-0.46s-0.88,0.13-1-1.08
	s1.33-1.13-0.71-1.75s-1.92-1.67-2.42-0.67s-1.67,1.67-1.88,1.67s0.96,0.75-0.92-0.71s-1.83-1.62-1.71-2.04s1-1.75-0.63-0.54
	s-1.13,2.29-2,1.25s0.5-1.5-1.13-1.54s-3.29-0.04-3.29-0.04s0.5-0.29-0.54-0.46s-1.46-0.29-0.54-1.08s1.46-0.5,0.92-1.17
	s-0.75-0.75-0.83-1.46s-0.08-1.29,0.13-2.08s-0.46-1.25-0.58-1.38s1.17-0.54-0.67-0.58s-2.88-0.17-2.88-0.17s2.25,1.42-1.33,1.42
	s-9.29-0.04-9.33-0.33s-0.63-1.08-0.88-1.58s-0.71-1.33-0.5-1.58s0.46-1.25,0.58-1.33c0.04-0.03,0.15-0.09,0.3-0.18
	c0.33-0.2,0.81-0.48,0.87-0.57c0.08-0.13,1.17-0.33,2.29-0.17s2.17-0.04,2.79-0.21s0.37-0.21,1.54-0.67s1.38-0.58,1.63-1
	s0.67-1.17,0.75-1.92s0.25-1.08-0.13-1.33s-0.79-0.63-1.33-0.25s-0.58,0.21-0.92,0.83s-0.54,0.92-1.29,0.96s-1.38-0.29-1.5-0.42
	s-1.04-0.21-0.79-0.92s0.96-2.42,0-2.75s-0.33-0.38-1.38-0.5s0.04-0.21-1.54-0.54s-1.71-3.08-1.79-0.29s0.5,4.13,1.29,4.83
	s1.08-0.42,1.17,1.08s0.13,1.42-0.25,2.04s-2.5,2.67-3.5,2.63s-0.83,0.58-1.58-0.58s0.08-1.08-1-1.58s-0.58-1.54-1.54-0.75
	s-1.42-0.17-1.44,1.29s1.15,1.04,1.02,2.21s-0.42,2.13-1.02,2.79s-0.56,1.04-1.65,1.21s1.79,0.21-2.29-0.21s-2.21-0.88-2.5-0.88
	s-1.46-0.25-2.79-0.58s-1.5-0.29-3.04-0.88s-2.21,0.13-1.71-1.21s0.75-1.79,1.13-2.25s1.67,0.54,0.17-1.08s-0.96-1.79-1.67-1.79
	s1.5-0.17-1.5-0.08s-3.17-0.21-5.38,0s-2.33,0.12-3.71,0.04s-0.77-0.25-3.21-0.46s-1.08-1-1.08-1l1.21-0.92L3,107.77
	c0,0,0.33-0.56,0.67-0.58s1.79-0.54,1.79-0.54l0.96-1.54c0,0,2.63-1.23,2.77-1.3s1.12-0.62,1.12-0.62l1.55-1.93l-1.63-0.64
	c0,0-0.23-0.88-0.23-1.08S9,99.09,10.04,98.85s1.83-0.69,1.83-0.69s0-0.26,0.12-0.72s0.21-1.25,0.21-1.42s-0.21-0.67,0.38-0.75
	s1.75-0.09,2.13-0.09s0.63,0,0.96,0s0.92,0.68,1.42,1.09s0.61,0.56,1,0.42s1.07-0.79,1.14-0.93s-0.18-0.57-0.18-0.74
	s-0.38-0.71-0.54-0.83s-0.54-0.71-0.33-1.17s1.15-1.46,1.15-1.46l0.35-0.43l0.97-1.45l-0.42-3.29c0,0-1.29-1.88-0.88-2.04
	s10.37-8.53,10.37-8.53l-0.04-0.38l-3.62-5.05l-3.71-0.95l0.29-2.75l1.21-1.75l-0.5-2.04l-1.54-2.31l-2.42-3.27"/>
</svg>
