<?xml version="1.0" encoding="utf-8"?>
<!-- Generator: Adobe Illustrator 15.1.0, SVG Export Plug-In  -->
<!DOCTYPE svg PUBLIC "-//W3C//DTD SVG 1.1//EN" "http://www.w3.org/Graphics/SVG/1.1/DTD/svg11.dtd" [
	<!ENTITY ns_flows "http://ns.adobe.com/Flows/1.0/">
]>
<svg version="1.1"
	 xmlns="http://www.w3.org/2000/svg" xmlns:xlink="http://www.w3.org/1999/xlink" xmlns:a="http://ns.adobe.com/AdobeSVGViewerExtensions/3.0/"
	 x="0px" y="0px" width="600px" height="200px" viewBox="-220.62 -23.24 600 200" enable-background="new -220.62 -23.24 600 200"
	 xml:space="preserve">
<defs>
</defs>
<path fill="none" stroke="#020202" stroke-miterlimit="10" d="M67.27,4.18l1.77,0.95l2.38,0.48l1.39-2.08l1.17-0.33
	c0,0,0.73,1.65,0.79,1.76s3.15-0.02,3.15-0.02l4.47,3.28l3.81-2.61l1.28,2.4l1.18-1.55l2.66-0.21l1.64-2.08l2.49-0.01l0.98-0.62
	l2.37,0.76l1.6,1.42l1.04-1.94l2.4,0.15l1.32-0.74l0.35-2.56l1.58-0.13l0.74,0.75l2.02,1.41l-0.58,2.03l1.04,3l4.29,0.37l0.43,4.3
	l1.49-0.57l1.06,0.84l2.38-0.14l0.53-1.72L124.09,8l2.38-1.62l2.36-0.56l1.54-0.24l1.78,1l2.7,2.81l-0.63,1.47l0.84,1.52l0.12,3.85
	l1.13,0.85l0.7,0.89l3.09-0.41l0.24,2.1l1.63,1.88l3.17,0.31l0.92-1l2.5,0.35l3.35,4.52l1.69-0.69l1.68,2.11h2.57l1.09,1.62
	l-2.59,0.28l-1.3,2.38l-1.88,2.28l0.16,2.17l2.39,1.25l-1.22,2.03l1.41,2.08l-1.65,2.34l-2.65,1.8l0.78,2.19l-0.11,2.09l-2.97,4.02
	l-2.38,0.52l-2.92,2.72l0.73,2.17l-1.18,1.19l-3.1,1.52h-2.44l-0.81,1.75l-2.16-1.68l-1.44,1.68l1.89,2.25l-1.06,1.14l-4.91-2.71
	l-1.81,0.05l-2.05,4.58l1.77,1.77l-2.03,4.08l-1,2.7l0.13,3.23l-4.14,5.86l0.31,4.08l-0.89,0.35l-0.06,2.81l-2.03-0.7l-1.23,1.41
	l-1.27,2.08l-0.55,1.38l-2.03,0.69c0,0-1.11,2.22-1.16,2.2s-1.52-0.41-1.52-0.41l0.8-2.17l-2-0.72l-1.75,1.17l-1.2-1.23l-1.81,0.3
	l-1.31,0.98l-3.8,0.31l-1.53,1.66l-2.73-1.7l-3.39,2.14l0.17,1.16l-2.27,2.67l-3.67,0.17l-1.2,0.95l-3.25-1.75l-3.55,1.91l-2.2,0.94
	l1.17,1.64l2.84,1.97l-0.83,1.44l1.59,2.2l1.19,1.97l2.38,0.47l1.17,0.89l-1.59,2.5l3.69,4.27l-1.48,1.27l1.47,1.91l-0.06,1.73
	l1.66,0.56l-0.38,4.14l0.67,1.69l-2.44,1.48l2.11,3.3l-0.95,2l-0.45,3.02l3.59-0.36l1.73,0.86l-1.14,1.83c0,0-2.09,0.16-2.16,0.22
	s-0.78,1.39-0.84,1.44s-3.19,0.95-3.19,0.95l-2.13,0.84l-2.95-2.03l-1.95-0.19l-1.27,1.44l-2.42,0.13l-0.94-2.39l0.52-1.19
	l-2.09,0.39l-0.77,1.05l-2.67-0.05l-1.2,1.67c0,0-2.77,0.48-2.75,0.42s-2.8,0.06-2.8,0.06l-1,2.44L57,150.01l-1.92-0.09l-1.39-0.75
	l-1.58,0.05l-1.05,0.7l-1.11-0.7v-3.38l-2.61-2.02l-5.11,0.05v-1.67l-2.63,0.19l-3.78-3.25l-0.56-2.25l-1.3,0.13l-0.44,1.73
	l-0.95-1.81l0.36-4.27l-3.92-6.05l-0.73-1h-1.75l-3.22-5.23l-4.36-3.64c0,0-0.28-4-0.2-4.02s1.3-1.3,1.33-1.34s0.5-1.56,0.52-1.61
	s2.34-1.06,2.34-1.06l0.41-2.16l1.23-2.06l0.8-1.66l-0.27-1.36l-4.3-3.2l-1.02-0.56c0,0-2.72-0.13-2.7-0.19s0-0.7,0-0.7l-3.14-0.59
	l0.66-0.94c0,0,2.16-0.36,2.2-0.42s0.81-1.09,0.81-1.09l-0.03-2.64l-0.5-1.23l0.59-1.22l0.84-1.05l2.67-0.03l1.75-0.72l1.64,0.44
	c0,0,2.69,0.16,2.77,0.19s1.69,1.45,1.69,1.45l2.2,1c0,0,0.97,0.22,0.98,0.28s0.8,1.81,0.8,1.81l1.05,0.19l3.45-0.22l0.19-1.23
	l-1.69-0.14l-1.63-0.72l-1.08-0.77l-1.06-1.39c0,0-0.94-0.63-0.94-0.8s-0.61-0.53-0.61-0.53l-1.7-1.03l-2.64,0.11l-0.3-1.05
	l-1.56-0.78l-2.39,0.02l-0.8,0.91l-4.16-0.13l-1.25,1.41l-1.45,1.33l-1.55,0.72l-1.45,0.94L9.1,87.05l-1.3-1.03l-1.97,0.05
	l-1.48,1.14c0,0-1.31-0.09-1.33-0.16s1.41-2.42,1.41-2.42S4.1,83.46,4.1,83.38S2.58,82.3,2.58,82.3l-1.2-0.98c0,0-0.94-1-0.88-1.03
	s1.23-1.42,1.31-1.45s1.55-0.69,1.55-0.69l0.95,0.86c0,0,2.08,0.2,2.22,0.17s0.7-1.33,0.7-1.33l-0.28-1.38c0,0-2.72-0.14-2.67-0.23
	s-0.27-1.73-0.27-1.73l0.53-0.49l1.12,1.39l0.58-1.29l1.84,0.98l1.64-0.92l0.98-2.55l1.26-0.52c0,0,1.39,1.11,1.47,1.17
	s1.22-0.82,1.22-0.82l2.17,0.95l0.67-2l2.68-0.81l-0.34-3.59l1.16-1.3L20,63.43l0.42-1.53l1.52-0.08l0.65-0.99l2.35-0.86l1.45,0.37
	l1.34-1.05l2.07-0.35l2.5-0.98c0,0,1.85,1.07,1.9,1.09s1.87-0.72,1.87-0.72l1.19,0.83l1.55-0.96l1.92-0.49l0.84-1.41l2.09-3.09
	l3.05-0.71l2.17-0.9l0.85-1.84l2.21,0.33l1.97,1.64l1.72,1.16l3.73,0.06l0.67-2.16l0.96-2.34l0.92-1.42l1.06-2.5l0.81-3.58l2-1.79
	l4.11-0.11l-0.29-3.07l-2.68-8.96l-0.89-4.47l-0.58-2.5l3.1-3.52l-0.63-3.99l-1.27-2.53l1.32-1.29l-1.03-2.09L67.27,4.18z"/>
</svg>
